<svg width="483" height="320" viewBox="0 0 483 320" fill="none" xmlns="http://www.w3.org/2000/svg">
<rect x="0.5" y="0.5" width="482" height="319" rx="39.5" fill="url(#paint0_linear_71_109)" stroke="black"/>
<path d="M179.687 172.608H180.215L184.007 180.744L187.679 172.608H188.183L190.031 183H188.855L187.559 175.368L184.055 183.072H183.863L180.311 175.536L179.015 183H177.839L179.687 172.608ZM196.684 183.192C196.044 183.192 195.42 183.072 194.812 182.832C194.22 182.592 193.692 182.24 193.228 181.776C192.764 181.312 192.388 180.752 192.1 180.096C191.828 179.424 191.692 178.656 191.692 177.792C191.692 176.96 191.828 176.216 192.1 175.56C192.372 174.888 192.732 174.32 193.18 173.856C193.644 173.392 194.18 173.04 194.788 172.8C195.396 172.544 196.044 172.416 196.732 172.416C197.724 172.416 198.556 172.656 199.228 173.136C199.9 173.6 200.396 174.16 200.716 174.816V172.608H201.868V183H200.716V180.552C200.396 181.32 199.884 181.952 199.18 182.448C198.492 182.944 197.66 183.192 196.684 183.192ZM196.732 182.04C197.372 182.04 197.932 181.92 198.412 181.68C198.908 181.424 199.316 181.096 199.636 180.696C199.972 180.296 200.22 179.848 200.38 179.352C200.556 178.856 200.644 178.368 200.644 177.888V177.624C200.644 177.112 200.564 176.616 200.404 176.136C200.244 175.64 200.004 175.2 199.684 174.816C199.364 174.432 198.964 174.128 198.484 173.904C198.004 173.664 197.444 173.544 196.804 173.544C195.668 173.544 194.74 173.912 194.02 174.648C193.316 175.384 192.964 176.424 192.964 177.768C192.964 179.048 193.3 180.08 193.972 180.864C194.66 181.648 195.58 182.04 196.732 182.04ZM204.946 188.76V172.608H206.098V174.96C206.37 174.272 206.842 173.68 207.514 173.184C208.186 172.672 209.042 172.416 210.082 172.416C210.77 172.416 211.418 172.544 212.026 172.8C212.634 173.04 213.162 173.392 213.61 173.856C214.074 174.32 214.442 174.888 214.714 175.56C214.986 176.216 215.122 176.96 215.122 177.792C215.122 178.656 214.978 179.424 214.69 180.096C214.418 180.752 214.05 181.312 213.586 181.776C213.122 182.24 212.586 182.592 211.978 182.832C211.386 183.072 210.77 183.192 210.13 183.192C209.186 183.192 208.37 182.96 207.682 182.496C206.994 182.016 206.49 181.416 206.17 180.696V188.76H204.946ZM210.01 173.544C209.386 173.544 208.834 173.656 208.354 173.88C207.89 174.104 207.498 174.4 207.178 174.768C206.858 175.136 206.61 175.56 206.434 176.04C206.274 176.504 206.186 176.984 206.17 177.48V178.032C206.186 178.512 206.274 178.992 206.434 179.472C206.61 179.952 206.858 180.384 207.178 180.768C207.514 181.136 207.922 181.44 208.402 181.68C208.898 181.92 209.458 182.04 210.082 182.04C211.234 182.04 212.146 181.648 212.818 180.864C213.506 180.08 213.85 179.048 213.85 177.768C213.85 176.424 213.49 175.384 212.77 174.648C212.066 173.912 211.146 173.544 210.01 173.544ZM219.561 173.736H216.057V172.608H224.313V173.736H220.809V183H219.561V173.736ZM233.297 182.808L238.505 176.232C239.081 175.512 239.561 174.888 239.945 174.36C240.329 173.816 240.641 173.328 240.881 172.896C241.121 172.448 241.289 172.024 241.385 171.624C241.481 171.224 241.529 170.792 241.529 170.328C241.529 169.304 241.225 168.536 240.617 168.024C240.009 167.496 239.209 167.232 238.217 167.232C237.449 167.232 236.737 167.408 236.081 167.76C235.441 168.112 234.817 168.616 234.209 169.272L233.441 168.528C233.633 168.272 233.881 168 234.185 167.712C234.505 167.424 234.873 167.16 235.289 166.92C235.721 166.68 236.193 166.48 236.705 166.32C237.217 166.16 237.777 166.08 238.385 166.08C239.121 166.08 239.761 166.192 240.305 166.416C240.865 166.64 241.329 166.944 241.697 167.328C242.065 167.696 242.337 168.128 242.513 168.624C242.705 169.12 242.801 169.648 242.801 170.208C242.801 170.72 242.745 171.208 242.633 171.672C242.537 172.12 242.369 172.592 242.129 173.088C241.889 173.568 241.577 174.088 241.193 174.648C240.809 175.208 240.337 175.84 239.777 176.544L235.577 181.8H243.137V183H233.297V182.808ZM251.951 183.144C250.223 183.144 248.903 182.408 247.991 180.936C247.079 179.448 246.623 177.344 246.623 174.624C246.623 171.84 247.087 169.72 248.015 168.264C248.959 166.792 250.239 166.056 251.855 166.056C253.567 166.056 254.871 166.8 255.767 168.288C256.679 169.76 257.135 171.856 257.135 174.576C257.135 177.36 256.671 179.488 255.743 180.96C254.815 182.416 253.551 183.144 251.951 183.144ZM251.951 181.968C253.167 181.968 254.111 181.368 254.783 180.168C255.471 178.968 255.815 177.104 255.815 174.576C255.815 172.096 255.471 170.256 254.783 169.056C254.111 167.84 253.135 167.232 251.855 167.232C250.623 167.232 249.663 167.832 248.975 169.032C248.287 170.232 247.943 172.096 247.943 174.624C247.943 177.104 248.287 178.952 248.975 180.168C249.663 181.368 250.655 181.968 251.951 181.968ZM260.039 182.808L265.247 176.232C265.823 175.512 266.303 174.888 266.687 174.36C267.071 173.816 267.383 173.328 267.623 172.896C267.863 172.448 268.031 172.024 268.127 171.624C268.223 171.224 268.271 170.792 268.271 170.328C268.271 169.304 267.967 168.536 267.359 168.024C266.751 167.496 265.951 167.232 264.959 167.232C264.191 167.232 263.479 167.408 262.823 167.76C262.183 168.112 261.559 168.616 260.951 169.272L260.183 168.528C260.375 168.272 260.623 168 260.927 167.712C261.247 167.424 261.615 167.16 262.031 166.92C262.463 166.68 262.935 166.48 263.447 166.32C263.959 166.16 264.519 166.08 265.127 166.08C265.863 166.08 266.503 166.192 267.047 166.416C267.607 166.64 268.071 166.944 268.439 167.328C268.807 167.696 269.079 168.128 269.255 168.624C269.447 169.12 269.543 169.648 269.543 170.208C269.543 170.72 269.487 171.208 269.375 171.672C269.279 172.12 269.111 172.592 268.871 173.088C268.631 173.568 268.319 174.088 267.935 174.648C267.551 175.208 267.079 175.84 266.519 176.544L262.319 181.8H269.879V183H260.039V182.808ZM278.241 183.24C277.377 183.24 276.513 183.072 275.649 182.736C274.801 182.384 274.057 181.8 273.417 180.984L274.257 180.168C274.705 180.728 275.273 181.192 275.961 181.56C276.665 181.928 277.457 182.112 278.337 182.112C278.929 182.112 279.481 182.016 279.993 181.824C280.521 181.616 280.977 181.336 281.361 180.984C281.745 180.616 282.041 180.184 282.249 179.688C282.473 179.192 282.585 178.648 282.585 178.056C282.585 176.92 282.201 176.024 281.433 175.368C280.681 174.696 279.681 174.36 278.433 174.36H278.097V173.28H278.433C278.929 173.28 279.377 173.192 279.777 173.016C280.177 172.84 280.513 172.6 280.785 172.296C281.057 171.992 281.265 171.64 281.409 171.24C281.553 170.84 281.625 170.424 281.625 169.992C281.625 169.16 281.337 168.472 280.761 167.928C280.201 167.368 279.409 167.088 278.385 167.088C277.505 167.088 276.769 167.272 276.177 167.64C275.601 167.992 275.129 168.432 274.761 168.96L273.921 168.24C274.401 167.552 275.025 167 275.793 166.584C276.561 166.168 277.417 165.96 278.361 165.96C279.049 165.96 279.673 166.064 280.233 166.272C280.793 166.48 281.265 166.768 281.649 167.136C282.049 167.488 282.353 167.912 282.561 168.408C282.769 168.888 282.873 169.408 282.873 169.968C282.873 170.448 282.793 170.888 282.633 171.288C282.489 171.688 282.289 172.048 282.033 172.368C281.793 172.688 281.505 172.96 281.169 173.184C280.849 173.408 280.513 173.576 280.161 173.688C281.345 173.912 282.249 174.44 282.873 175.272C283.497 176.088 283.809 177.04 283.809 178.128C283.809 178.848 283.665 179.52 283.377 180.144C283.105 180.768 282.721 181.312 282.225 181.776C281.729 182.224 281.137 182.584 280.449 182.856C279.777 183.112 279.041 183.24 278.241 183.24ZM299.523 178.032H293.091V176.904H299.523V178.032ZM164.185 206.936H158.041V212H156.817V201.608H158.041V205.808H164.185V201.608H165.409V212H164.185V206.936ZM172.953 212.192C172.313 212.192 171.689 212.072 171.081 211.832C170.489 211.592 169.961 211.24 169.497 210.776C169.033 210.312 168.657 209.752 168.369 209.096C168.097 208.424 167.961 207.656 167.961 206.792C167.961 205.96 168.097 205.216 168.369 204.56C168.641 203.888 169.001 203.32 169.449 202.856C169.913 202.392 170.449 202.04 171.057 201.8C171.665 201.544 172.313 201.416 173.001 201.416C173.993 201.416 174.825 201.656 175.497 202.136C176.169 202.6 176.665 203.16 176.985 203.816V201.608H178.137V212H176.985V209.552C176.665 210.32 176.153 210.952 175.449 211.448C174.761 211.944 173.929 212.192 172.953 212.192ZM173.001 211.04C173.641 211.04 174.201 210.92 174.681 210.68C175.177 210.424 175.585 210.096 175.905 209.696C176.241 209.296 176.489 208.848 176.649 208.352C176.825 207.856 176.913 207.368 176.913 206.888V206.624C176.913 206.112 176.833 205.616 176.673 205.136C176.513 204.64 176.273 204.2 175.953 203.816C175.633 203.432 175.233 203.128 174.753 202.904C174.273 202.664 173.713 202.544 173.073 202.544C171.937 202.544 171.009 202.912 170.289 203.648C169.585 204.384 169.233 205.424 169.233 206.768C169.233 208.048 169.569 209.08 170.241 209.864C170.929 210.648 171.849 211.04 173.001 211.04ZM186.088 212.192C185.256 212.192 184.504 212.048 183.832 211.76C183.176 211.472 182.608 211.08 182.128 210.584C181.664 210.088 181.304 209.512 181.048 208.856C180.808 208.184 180.688 207.472 180.688 206.72C180.688 205.888 180.824 205.144 181.096 204.488C181.384 203.832 181.768 203.28 182.248 202.832C182.744 202.368 183.32 202.016 183.976 201.776C184.632 201.536 185.328 201.416 186.064 201.416C186.832 201.416 187.56 201.544 188.248 201.8C188.936 202.056 189.536 202.44 190.048 202.952L189.328 203.888C188.928 203.456 188.44 203.128 187.864 202.904C187.304 202.664 186.704 202.544 186.064 202.544C185.504 202.544 184.968 202.64 184.456 202.832C183.96 203.008 183.52 203.272 183.136 203.624C182.768 203.976 182.472 204.416 182.248 204.944C182.024 205.456 181.912 206.048 181.912 206.72C181.912 207.376 182.016 207.968 182.224 208.496C182.448 209.024 182.752 209.48 183.136 209.864C183.52 210.248 183.968 210.544 184.48 210.752C184.992 210.96 185.552 211.064 186.16 211.064C186.864 211.064 187.496 210.936 188.056 210.68C188.616 210.424 189.064 210.088 189.4 209.672L190.168 210.44C189.736 210.92 189.176 211.336 188.488 211.688C187.816 212.024 187.016 212.192 186.088 212.192ZM195.104 202.736H191.6V201.608H199.856V202.736H196.352V212H195.104V202.736ZM205.982 212.192C205.246 212.192 204.558 212.056 203.918 211.784C203.294 211.512 202.742 211.136 202.262 210.656C201.798 210.16 201.43 209.584 201.158 208.928C200.902 208.256 200.774 207.528 200.774 206.744C200.774 205.976 200.902 205.264 201.158 204.608C201.43 203.952 201.798 203.392 202.262 202.928C202.742 202.448 203.294 202.08 203.918 201.824C204.558 201.552 205.246 201.416 205.982 201.416C206.718 201.416 207.398 201.552 208.022 201.824C208.646 202.08 209.19 202.448 209.654 202.928C210.118 203.392 210.478 203.952 210.734 204.608C211.006 205.264 211.142 205.976 211.142 206.744C211.142 207.528 211.006 208.256 210.734 208.928C210.478 209.584 210.118 210.16 209.654 210.656C209.19 211.136 208.638 211.512 207.998 211.784C207.374 212.056 206.702 212.192 205.982 212.192ZM205.982 211.064C206.558 211.064 207.086 210.96 207.566 210.752C208.046 210.544 208.462 210.248 208.814 209.864C209.166 209.48 209.438 209.024 209.63 208.496C209.838 207.968 209.942 207.384 209.942 206.744C209.942 206.12 209.838 205.552 209.63 205.04C209.438 204.528 209.166 204.088 208.814 203.72C208.462 203.336 208.046 203.048 207.566 202.856C207.086 202.648 206.558 202.544 205.982 202.544C205.406 202.544 204.87 202.648 204.374 202.856C203.894 203.048 203.478 203.336 203.126 203.72C202.774 204.088 202.494 204.528 202.286 205.04C202.094 205.552 201.998 206.12 201.998 206.744C201.998 207.384 202.094 207.968 202.286 208.496C202.494 209.024 202.774 209.48 203.126 209.864C203.494 210.248 203.918 210.544 204.398 210.752C204.878 210.96 205.406 211.064 205.982 211.064ZM212.773 211.832L215.989 207.968C215.125 207.808 214.453 207.48 213.973 206.984C213.509 206.488 213.277 205.784 213.277 204.872C213.277 203.72 213.653 202.888 214.405 202.376C215.173 201.864 216.285 201.608 217.741 201.608H221.125V212H219.877V208.088H217.501H217.429L214.189 212H212.773V211.832ZM219.877 206.984V202.736H217.837C216.749 202.736 215.917 202.888 215.341 203.192C214.765 203.48 214.485 204.048 214.501 204.896C214.501 205.68 214.757 206.224 215.269 206.528C215.781 206.832 216.557 206.984 217.597 206.984H219.877ZM237.137 212H224.177V201.608H225.401V210.872H229.769V201.608H230.993V210.872H235.361V201.608H236.585V210.872H238.313V214.712H237.137V212ZM244.868 212.192C244.116 212.192 243.412 212.064 242.756 211.808C242.116 211.552 241.556 211.184 241.076 210.704C240.596 210.224 240.212 209.648 239.924 208.976C239.652 208.304 239.516 207.552 239.516 206.72C239.516 205.888 239.66 205.144 239.948 204.488C240.252 203.832 240.644 203.28 241.124 202.832C241.62 202.368 242.18 202.016 242.804 201.776C243.428 201.536 244.076 201.416 244.748 201.416C245.564 201.416 246.276 201.568 246.884 201.872C247.508 202.16 248.028 202.536 248.444 203C248.86 203.464 249.172 203.992 249.38 204.584C249.588 205.16 249.692 205.744 249.692 206.336V206.984H240.74C240.756 207.608 240.876 208.168 241.1 208.664C241.34 209.16 241.652 209.592 242.036 209.96C242.42 210.312 242.852 210.584 243.332 210.776C243.828 210.968 244.356 211.064 244.916 211.064C245.668 211.064 246.348 210.92 246.956 210.632C247.564 210.328 248.076 209.936 248.492 209.456L249.308 210.2C248.732 210.888 248.06 211.392 247.292 211.712C246.524 212.032 245.716 212.192 244.868 212.192ZM244.724 202.544C244.244 202.544 243.788 202.624 243.356 202.784C242.924 202.944 242.532 203.176 242.18 203.48C241.828 203.768 241.532 204.12 241.292 204.536C241.068 204.952 240.908 205.408 240.812 205.904H248.444C248.396 205.44 248.276 205.008 248.084 204.608C247.892 204.192 247.636 203.832 247.316 203.528C246.996 203.224 246.62 202.984 246.188 202.808C245.756 202.632 245.268 202.544 244.724 202.544ZM257.055 212.192C256.303 212.192 255.599 212.064 254.943 211.808C254.303 211.552 253.743 211.184 253.263 210.704C252.783 210.224 252.399 209.648 252.111 208.976C251.839 208.304 251.703 207.552 251.703 206.72C251.703 205.888 251.847 205.144 252.135 204.488C252.439 203.832 252.831 203.28 253.311 202.832C253.807 202.368 254.367 202.016 254.991 201.776C255.615 201.536 256.263 201.416 256.935 201.416C257.751 201.416 258.463 201.568 259.071 201.872C259.695 202.16 260.215 202.536 260.631 203C261.047 203.464 261.359 203.992 261.567 204.584C261.775 205.16 261.879 205.744 261.879 206.336V206.984H252.927C252.943 207.608 253.063 208.168 253.287 208.664C253.527 209.16 253.839 209.592 254.223 209.96C254.607 210.312 255.039 210.584 255.519 210.776C256.015 210.968 256.543 211.064 257.103 211.064C257.855 211.064 258.535 210.92 259.143 210.632C259.751 210.328 260.263 209.936 260.679 209.456L261.495 210.2C260.919 210.888 260.247 211.392 259.479 211.712C258.711 212.032 257.903 212.192 257.055 212.192ZM256.911 202.544C256.431 202.544 255.975 202.624 255.543 202.784C255.111 202.944 254.719 203.176 254.367 203.48C254.015 203.768 253.719 204.12 253.479 204.536C253.255 204.952 253.095 205.408 252.999 205.904H260.631C260.583 205.44 260.463 205.008 260.271 204.608C260.079 204.192 259.823 203.832 259.503 203.528C259.183 203.224 258.807 202.984 258.375 202.808C257.943 202.632 257.455 202.544 256.911 202.544ZM270.653 201.608H274.517C275.621 201.608 276.429 201.832 276.941 202.28C277.469 202.728 277.733 203.328 277.733 204.08C277.733 204.592 277.605 205.04 277.349 205.424C277.093 205.792 276.725 206.064 276.245 206.24C276.965 206.384 277.533 206.672 277.949 207.104C278.365 207.536 278.573 208.144 278.573 208.928C278.573 209.92 278.221 210.68 277.517 211.208C276.829 211.736 275.829 212 274.517 212H270.653V201.608ZM271.877 206.888V210.872H274.277C275.365 210.872 276.141 210.704 276.605 210.368C277.085 210.016 277.325 209.504 277.325 208.832C277.325 208.144 277.077 207.648 276.581 207.344C276.101 207.04 275.349 206.888 274.325 206.888H271.877ZM271.877 202.712V205.808H274.277C274.965 205.808 275.509 205.696 275.909 205.472C276.325 205.232 276.533 204.832 276.533 204.272C276.533 203.232 275.757 202.712 274.205 202.712H271.877ZM280.919 217.76V201.608H282.071V203.96C282.343 203.272 282.815 202.68 283.487 202.184C284.159 201.672 285.015 201.416 286.055 201.416C286.743 201.416 287.391 201.544 287.999 201.8C288.607 202.04 289.135 202.392 289.583 202.856C290.047 203.32 290.415 203.888 290.687 204.56C290.959 205.216 291.095 205.96 291.095 206.792C291.095 207.656 290.951 208.424 290.663 209.096C290.391 209.752 290.023 210.312 289.559 210.776C289.095 211.24 288.559 211.592 287.951 211.832C287.359 212.072 286.743 212.192 286.103 212.192C285.159 212.192 284.343 211.96 283.655 211.496C282.967 211.016 282.463 210.416 282.143 209.696V217.76H280.919ZM285.983 202.544C285.359 202.544 284.807 202.656 284.327 202.88C283.863 203.104 283.471 203.4 283.151 203.768C282.831 204.136 282.583 204.56 282.407 205.04C282.247 205.504 282.159 205.984 282.143 206.48V207.032C282.159 207.512 282.247 207.992 282.407 208.472C282.583 208.952 282.831 209.384 283.151 209.768C283.487 210.136 283.895 210.44 284.375 210.68C284.871 210.92 285.431 211.04 286.055 211.04C287.207 211.04 288.119 210.648 288.791 209.864C289.479 209.08 289.823 208.048 289.823 206.768C289.823 205.424 289.463 204.384 288.743 203.648C288.039 202.912 287.119 202.544 285.983 202.544ZM298.469 212.192C297.717 212.192 297.013 212.064 296.357 211.808C295.717 211.552 295.157 211.184 294.677 210.704C294.197 210.224 293.813 209.648 293.525 208.976C293.253 208.304 293.117 207.552 293.117 206.72C293.117 205.888 293.261 205.144 293.549 204.488C293.853 203.832 294.245 203.28 294.725 202.832C295.221 202.368 295.781 202.016 296.405 201.776C297.029 201.536 297.677 201.416 298.349 201.416C299.165 201.416 299.877 201.568 300.485 201.872C301.109 202.16 301.629 202.536 302.045 203C302.461 203.464 302.773 203.992 302.981 204.584C303.189 205.16 303.293 205.744 303.293 206.336V206.984H294.341C294.357 207.608 294.477 208.168 294.701 208.664C294.941 209.16 295.253 209.592 295.637 209.96C296.021 210.312 296.453 210.584 296.933 210.776C297.429 210.968 297.957 211.064 298.517 211.064C299.269 211.064 299.949 210.92 300.557 210.632C301.165 210.328 301.677 209.936 302.093 209.456L302.909 210.2C302.333 210.888 301.661 211.392 300.893 211.712C300.125 212.032 299.317 212.192 298.469 212.192ZM298.325 202.544C297.845 202.544 297.389 202.624 296.957 202.784C296.525 202.944 296.133 203.176 295.781 203.48C295.429 203.768 295.133 204.12 294.893 204.536C294.669 204.952 294.509 205.408 294.413 205.904H302.045C301.997 205.44 301.877 205.008 301.685 204.608C301.493 204.192 301.237 203.832 300.917 203.528C300.597 203.224 300.221 202.984 299.789 202.808C299.357 202.632 298.869 202.544 298.325 202.544ZM306.848 201.608H307.376L311.168 209.744L314.84 201.608H315.344L317.192 212H316.016L314.72 204.368L311.216 212.072H311.024L307.472 204.536L306.176 212H305L306.848 201.608ZM318.851 211.832L322.067 207.968C321.203 207.808 320.531 207.48 320.051 206.984C319.587 206.488 319.355 205.784 319.355 204.872C319.355 203.72 319.731 202.888 320.483 202.376C321.251 201.864 322.363 201.608 323.819 201.608H327.203V212H325.955V208.088H323.579H323.507L320.267 212H318.851V211.832ZM325.955 206.984V202.736H323.915C322.827 202.736 321.995 202.888 321.419 203.192C320.843 203.48 320.563 204.048 320.579 204.896C320.579 205.68 320.835 206.224 321.347 206.528C321.859 206.832 322.635 206.984 323.675 206.984H325.955ZM129.548 259.608H136.1V260.736H130.772V270H129.548V259.608ZM138.477 275.76V259.608H139.629V261.96C139.901 261.272 140.373 260.68 141.045 260.184C141.717 259.672 142.573 259.416 143.613 259.416C144.301 259.416 144.949 259.544 145.557 259.8C146.165 260.04 146.693 260.392 147.141 260.856C147.605 261.32 147.973 261.888 148.245 262.56C148.517 263.216 148.653 263.96 148.653 264.792C148.653 265.656 148.509 266.424 148.221 267.096C147.949 267.752 147.581 268.312 147.117 268.776C146.653 269.24 146.117 269.592 145.509 269.832C144.917 270.072 144.301 270.192 143.661 270.192C142.717 270.192 141.901 269.96 141.213 269.496C140.525 269.016 140.021 268.416 139.701 267.696V275.76H138.477ZM143.541 260.544C142.917 260.544 142.365 260.656 141.885 260.88C141.421 261.104 141.029 261.4 140.709 261.768C140.389 262.136 140.141 262.56 139.965 263.04C139.805 263.504 139.717 263.984 139.701 264.48V265.032C139.717 265.512 139.805 265.992 139.965 266.472C140.141 266.952 140.389 267.384 140.709 267.768C141.045 268.136 141.453 268.44 141.933 268.68C142.429 268.92 142.989 269.04 143.613 269.04C144.765 269.04 145.677 268.648 146.349 267.864C147.037 267.08 147.381 266.048 147.381 264.768C147.381 263.424 147.021 262.384 146.301 261.648C145.597 260.912 144.677 260.544 143.541 260.544ZM155.668 270.192C155.028 270.192 154.404 270.072 153.796 269.832C153.204 269.592 152.676 269.24 152.212 268.776C151.748 268.312 151.372 267.752 151.084 267.096C150.812 266.424 150.676 265.656 150.676 264.792C150.676 263.96 150.812 263.216 151.084 262.56C151.356 261.888 151.716 261.32 152.164 260.856C152.628 260.392 153.164 260.04 153.772 259.8C154.38 259.544 155.028 259.416 155.716 259.416C156.708 259.416 157.54 259.656 158.212 260.136C158.884 260.6 159.38 261.16 159.7 261.816V259.608H160.852V270H159.7V267.552C159.38 268.32 158.868 268.952 158.164 269.448C157.476 269.944 156.644 270.192 155.668 270.192ZM155.716 269.04C156.356 269.04 156.916 268.92 157.396 268.68C157.892 268.424 158.3 268.096 158.62 267.696C158.956 267.296 159.204 266.848 159.364 266.352C159.54 265.856 159.628 265.368 159.628 264.888V264.624C159.628 264.112 159.548 263.616 159.388 263.136C159.228 262.64 158.988 262.2 158.668 261.816C158.348 261.432 157.948 261.128 157.468 260.904C156.988 260.664 156.428 260.544 155.788 260.544C154.652 260.544 153.724 260.912 153.004 261.648C152.3 262.384 151.948 263.424 151.948 264.768C151.948 266.048 152.284 267.08 152.956 267.864C153.644 268.648 154.564 269.04 155.716 269.04ZM168.563 270.168C167.843 270.168 167.171 270.04 166.547 269.784C165.923 269.512 165.379 269.144 164.915 268.68C164.451 268.2 164.083 267.632 163.811 266.976C163.539 266.32 163.403 265.6 163.403 264.816C163.403 264.016 163.539 263.288 163.811 262.632C164.099 261.96 164.475 261.392 164.939 260.928C165.403 260.448 165.947 260.08 166.571 259.824C167.195 259.552 167.859 259.416 168.563 259.416H168.779V253.2H170.003V259.416H170.243C170.963 259.416 171.635 259.552 172.259 259.824C172.883 260.08 173.427 260.448 173.891 260.928C174.355 261.392 174.723 261.952 174.995 262.608C175.267 263.264 175.403 263.984 175.403 264.768C175.403 265.568 175.259 266.304 174.971 266.976C174.699 267.632 174.323 268.2 173.843 268.68C173.379 269.144 172.835 269.512 172.211 269.784C171.587 270.04 170.931 270.168 170.243 270.168H170.003V275.76H168.779V270.168H168.563ZM170.003 260.544V269.04H170.243C170.803 269.04 171.323 268.936 171.803 268.728C172.283 268.52 172.699 268.224 173.051 267.84C173.403 267.456 173.675 267.008 173.867 266.496C174.075 265.968 174.179 265.392 174.179 264.768C174.179 264.144 174.075 263.576 173.867 263.064C173.675 262.536 173.403 262.088 173.051 261.72C172.699 261.352 172.283 261.064 171.803 260.856C171.323 260.648 170.803 260.544 170.243 260.544H170.003ZM164.627 264.84C164.627 265.464 164.723 266.032 164.915 266.544C165.123 267.056 165.403 267.496 165.755 267.864C166.107 268.232 166.523 268.52 167.003 268.728C167.483 268.936 168.003 269.04 168.563 269.04H168.779V260.544H168.563C168.003 260.544 167.483 260.648 167.003 260.856C166.523 261.064 166.107 261.36 165.755 261.744C165.403 262.128 165.123 262.584 164.915 263.112C164.723 263.64 164.627 264.216 164.627 264.84ZM177.946 259.608H179.17V267.528L186.058 259.608H186.514V270H185.29V262.056L178.402 270H177.946V259.608ZM195.667 265.68C195.347 265.808 194.955 265.92 194.491 266.016C194.027 266.112 193.483 266.16 192.859 266.16C192.251 266.16 191.699 266.096 191.203 265.968C190.723 265.84 190.315 265.64 189.979 265.368C189.643 265.08 189.379 264.72 189.187 264.288C189.011 263.84 188.923 263.296 188.923 262.656V259.608H190.147V262.56C190.147 263.36 190.355 263.968 190.771 264.384C191.203 264.8 191.987 265.008 193.123 265.008C193.635 265.008 194.091 264.976 194.491 264.912C194.907 264.832 195.299 264.728 195.667 264.6V259.608H196.891V270H195.667V265.68ZM204.637 270.192C203.885 270.192 203.181 270.064 202.525 269.808C201.885 269.552 201.325 269.184 200.845 268.704C200.365 268.224 199.981 267.648 199.693 266.976C199.421 266.304 199.285 265.552 199.285 264.72C199.285 263.888 199.429 263.144 199.717 262.488C200.021 261.832 200.413 261.28 200.893 260.832C201.389 260.368 201.949 260.016 202.573 259.776C203.197 259.536 203.845 259.416 204.517 259.416C205.333 259.416 206.045 259.568 206.653 259.872C207.277 260.16 207.797 260.536 208.213 261C208.629 261.464 208.941 261.992 209.149 262.584C209.357 263.16 209.461 263.744 209.461 264.336V264.984H200.509C200.525 265.608 200.645 266.168 200.869 266.664C201.109 267.16 201.421 267.592 201.805 267.96C202.189 268.312 202.621 268.584 203.101 268.776C203.597 268.968 204.125 269.064 204.685 269.064C205.437 269.064 206.117 268.92 206.725 268.632C207.333 268.328 207.845 267.936 208.261 267.456L209.077 268.2C208.501 268.888 207.829 269.392 207.061 269.712C206.293 270.032 205.485 270.192 204.637 270.192ZM204.493 260.544C204.013 260.544 203.557 260.624 203.125 260.784C202.693 260.944 202.301 261.176 201.949 261.48C201.597 261.768 201.301 262.12 201.061 262.536C200.837 262.952 200.677 263.408 200.581 263.904H208.213C208.165 263.44 208.045 263.008 207.853 262.608C207.661 262.192 207.405 261.832 207.085 261.528C206.765 261.224 206.389 260.984 205.957 260.808C205.525 260.632 205.037 260.544 204.493 260.544ZM216.873 270.192C216.041 270.192 215.289 270.048 214.617 269.76C213.961 269.472 213.393 269.08 212.913 268.584C212.449 268.088 212.089 267.512 211.833 266.856C211.593 266.184 211.473 265.472 211.473 264.72C211.473 263.888 211.609 263.144 211.881 262.488C212.169 261.832 212.553 261.28 213.033 260.832C213.529 260.368 214.105 260.016 214.761 259.776C215.417 259.536 216.113 259.416 216.849 259.416C217.617 259.416 218.345 259.544 219.033 259.8C219.721 260.056 220.321 260.44 220.833 260.952L220.113 261.888C219.713 261.456 219.225 261.128 218.649 260.904C218.089 260.664 217.489 260.544 216.849 260.544C216.289 260.544 215.753 260.64 215.241 260.832C214.745 261.008 214.305 261.272 213.921 261.624C213.553 261.976 213.257 262.416 213.033 262.944C212.809 263.456 212.697 264.048 212.697 264.72C212.697 265.376 212.801 265.968 213.009 266.496C213.233 267.024 213.537 267.48 213.921 267.864C214.305 268.248 214.753 268.544 215.265 268.752C215.777 268.96 216.337 269.064 216.945 269.064C217.649 269.064 218.281 268.936 218.841 268.68C219.401 268.424 219.849 268.088 220.185 267.672L220.953 268.44C220.521 268.92 219.961 269.336 219.273 269.688C218.601 270.024 217.801 270.192 216.873 270.192ZM223.321 259.608H224.545V263.976H225.577L229.609 259.608H230.977V259.776L226.633 264.384L231.985 269.832V270H230.521L225.553 265.056H224.545V270H223.321V259.608ZM233.634 259.608H234.858V267.528L241.746 259.608H242.202V270H240.978V262.056L234.09 270H233.634V259.608ZM245.282 259.608H246.506V267.528L253.394 259.608H253.85V270H252.626V262.056L245.738 270H245.282V259.608ZM249.578 257.832C248.57 257.832 247.762 257.592 247.154 257.112C246.562 256.616 246.282 255.928 246.314 255.048H247.418C247.402 255.608 247.586 256.056 247.97 256.392C248.354 256.728 248.906 256.896 249.626 256.896C250.298 256.896 250.834 256.744 251.234 256.44C251.65 256.12 251.85 255.656 251.834 255.048H252.938C252.938 255.928 252.634 256.616 252.026 257.112C251.418 257.592 250.602 257.832 249.578 257.832ZM261.821 268.872H263.069C263.549 268.088 263.885 267.112 264.077 265.944C264.285 264.76 264.389 263.504 264.389 262.176V259.608H271.229V268.872H272.957V272.712H271.781V270H262.997V272.712H261.821V268.872ZM265.565 262.56C265.565 263.664 265.485 264.76 265.325 265.848C265.165 266.936 264.861 267.944 264.413 268.872H270.005V260.736H265.565V262.56ZM274.86 259.608H276.084V267.528L282.972 259.608H283.428V270H282.204V262.056L275.316 270H274.86V259.608ZM289.677 270.192C289.149 270.192 288.677 270.144 288.261 270.048C287.845 269.952 287.477 269.832 287.157 269.688C286.837 269.528 286.557 269.36 286.317 269.184C286.093 269.008 285.893 268.832 285.717 268.656L286.485 267.744C286.853 268.128 287.293 268.448 287.805 268.704C288.333 268.944 288.965 269.064 289.701 269.064C290.709 269.064 291.477 268.848 292.005 268.416C292.549 267.984 292.821 267.464 292.821 266.856C292.821 266.28 292.565 265.816 292.053 265.464C291.557 265.112 290.861 264.936 289.965 264.936H288.645V263.784H289.821C290.541 263.784 291.125 263.656 291.573 263.4C292.021 263.128 292.245 262.736 292.245 262.224C292.245 261.728 292.021 261.328 291.573 261.024C291.141 260.704 290.509 260.544 289.677 260.544C289.213 260.544 288.733 260.616 288.237 260.76C287.741 260.888 287.277 261.112 286.845 261.432L286.317 260.472C286.749 260.168 287.229 259.92 287.757 259.728C288.285 259.52 288.925 259.416 289.677 259.416C290.877 259.416 291.797 259.672 292.437 260.184C293.093 260.696 293.421 261.328 293.421 262.08C293.421 262.608 293.269 263.064 292.965 263.448C292.661 263.832 292.277 264.112 291.813 264.288C292.485 264.48 293.021 264.816 293.421 265.296C293.837 265.776 294.045 266.336 294.045 266.976C294.045 267.408 293.949 267.816 293.757 268.2C293.565 268.584 293.277 268.928 292.893 269.232C292.525 269.52 292.069 269.752 291.525 269.928C290.981 270.104 290.365 270.192 289.677 270.192ZM301.027 270.192C300.387 270.192 299.763 270.072 299.155 269.832C298.563 269.592 298.035 269.24 297.571 268.776C297.107 268.312 296.731 267.752 296.443 267.096C296.171 266.424 296.035 265.656 296.035 264.792C296.035 263.96 296.171 263.216 296.443 262.56C296.715 261.888 297.075 261.32 297.523 260.856C297.987 260.392 298.523 260.04 299.131 259.8C299.739 259.544 300.387 259.416 301.075 259.416C302.067 259.416 302.899 259.656 303.571 260.136C304.243 260.6 304.739 261.16 305.059 261.816V259.608H306.211V270H305.059V267.552C304.739 268.32 304.227 268.952 303.523 269.448C302.835 269.944 302.003 270.192 301.027 270.192ZM301.075 269.04C301.715 269.04 302.275 268.92 302.755 268.68C303.251 268.424 303.659 268.096 303.979 267.696C304.315 267.296 304.563 266.848 304.723 266.352C304.899 265.856 304.987 265.368 304.987 264.888V264.624C304.987 264.112 304.907 263.616 304.747 263.136C304.587 262.64 304.347 262.2 304.027 261.816C303.707 261.432 303.307 261.128 302.827 260.904C302.347 260.664 301.787 260.544 301.147 260.544C300.011 260.544 299.083 260.912 298.363 261.648C297.659 262.384 297.307 263.424 297.307 264.768C297.307 266.048 297.643 267.08 298.315 267.864C299.003 268.648 299.923 269.04 301.075 269.04ZM309.29 259.608H310.514V267.528L317.402 259.608H317.858V270H316.634V262.056L309.746 270H309.29V259.608ZM313.586 257.832C312.578 257.832 311.77 257.592 311.162 257.112C310.57 256.616 310.29 255.928 310.322 255.048H311.426C311.41 255.608 311.594 256.056 311.978 256.392C312.362 256.728 312.914 256.896 313.634 256.896C314.306 256.896 314.842 256.744 315.242 256.44C315.658 256.12 315.858 255.656 315.842 255.048H316.946C316.946 255.928 316.642 256.616 316.034 257.112C315.426 257.592 314.61 257.832 313.586 257.832ZM328.306 264.936H322.162V270H320.938V259.608H322.162V263.808H328.306V259.608H329.53V270H328.306V264.936ZM337.434 270.192C336.682 270.192 335.978 270.064 335.322 269.808C334.682 269.552 334.122 269.184 333.642 268.704C333.162 268.224 332.778 267.648 332.49 266.976C332.218 266.304 332.082 265.552 332.082 264.72C332.082 263.888 332.226 263.144 332.514 262.488C332.818 261.832 333.21 261.28 333.69 260.832C334.186 260.368 334.746 260.016 335.37 259.776C335.994 259.536 336.642 259.416 337.314 259.416C338.13 259.416 338.842 259.568 339.45 259.872C340.074 260.16 340.594 260.536 341.01 261C341.426 261.464 341.738 261.992 341.946 262.584C342.154 263.16 342.258 263.744 342.258 264.336V264.984H333.306C333.322 265.608 333.442 266.168 333.666 266.664C333.906 267.16 334.218 267.592 334.602 267.96C334.986 268.312 335.418 268.584 335.898 268.776C336.394 268.968 336.922 269.064 337.482 269.064C338.234 269.064 338.914 268.92 339.522 268.632C340.13 268.328 340.642 267.936 341.058 267.456L341.874 268.2C341.298 268.888 340.626 269.392 339.858 269.712C339.09 270.032 338.282 270.192 337.434 270.192ZM337.29 260.544C336.81 260.544 336.354 260.624 335.922 260.784C335.49 260.944 335.098 261.176 334.746 261.48C334.394 261.768 334.098 262.12 333.858 262.536C333.634 262.952 333.474 263.408 333.378 263.904H341.01C340.962 263.44 340.842 263.008 340.65 262.608C340.458 262.192 340.202 261.832 339.882 261.528C339.562 261.224 339.186 260.984 338.754 260.808C338.322 260.632 337.834 260.544 337.29 260.544ZM344.798 275.76V259.608H345.95V261.96C346.222 261.272 346.694 260.68 347.366 260.184C348.038 259.672 348.894 259.416 349.934 259.416C350.622 259.416 351.27 259.544 351.878 259.8C352.486 260.04 353.014 260.392 353.462 260.856C353.926 261.32 354.294 261.888 354.566 262.56C354.838 263.216 354.974 263.96 354.974 264.792C354.974 265.656 354.83 266.424 354.542 267.096C354.27 267.752 353.902 268.312 353.438 268.776C352.974 269.24 352.438 269.592 351.83 269.832C351.238 270.072 350.622 270.192 349.982 270.192C349.038 270.192 348.222 269.96 347.534 269.496C346.846 269.016 346.342 268.416 346.022 267.696V275.76H344.798ZM349.862 260.544C349.238 260.544 348.686 260.656 348.206 260.88C347.742 261.104 347.35 261.4 347.03 261.768C346.71 262.136 346.462 262.56 346.286 263.04C346.126 263.504 346.038 263.984 346.022 264.48V265.032C346.038 265.512 346.126 265.992 346.286 266.472C346.462 266.952 346.71 267.384 347.03 267.768C347.366 268.136 347.774 268.44 348.254 268.68C348.75 268.92 349.31 269.04 349.934 269.04C351.086 269.04 351.998 268.648 352.67 267.864C353.358 267.08 353.702 266.048 353.702 264.768C353.702 263.424 353.342 262.384 352.622 261.648C351.918 260.912 350.998 260.544 349.862 260.544Z" fill="black"/>
<mask id="path-3-outside-1_71_109" maskUnits="userSpaceOnUse" x="120" y="86.9995" width="243" height="33" fill="black">
<rect fill="white" x="120" y="86.9995" width="243" height="33"/>
<path d="M129.853 112.385C127.309 112.385 125.151 111.51 123.378 109.76C121.604 107.986 120.718 105.816 120.718 103.25C120.718 100.683 121.604 98.5245 123.378 96.7745C125.151 95.0012 127.309 94.1145 129.853 94.1145C132.419 94.1145 134.589 95.0012 136.363 96.7745C138.136 98.5245 139.023 100.683 139.023 103.25C139.023 105.816 138.136 107.986 136.363 109.76C134.589 111.51 132.419 112.385 129.853 112.385ZM124.218 108.92C125.758 110.436 127.636 111.195 129.853 111.195C132.069 111.195 133.948 110.436 135.488 108.92C137.028 107.38 137.798 105.49 137.798 103.25C137.798 101.01 137.028 99.1312 135.488 97.6145C133.948 96.0745 132.069 95.3045 129.853 95.3045C127.636 95.3045 125.758 96.0745 124.218 97.6145C122.701 99.1312 121.943 101.01 121.943 103.25C121.943 105.49 122.701 107.38 124.218 108.92ZM151.454 112.385C148.911 112.385 146.753 111.51 144.979 109.76C143.206 107.986 142.319 105.816 142.319 103.25C142.319 100.683 143.206 98.5245 144.979 96.7745C146.753 95.0012 148.911 94.1145 151.454 94.1145C154.021 94.1145 156.191 95.0012 157.964 96.7745C159.738 98.5245 160.624 100.683 160.624 103.25C160.624 105.816 159.738 107.986 157.964 109.76C156.191 111.51 154.021 112.385 151.454 112.385ZM145.819 108.92C147.359 110.436 149.238 111.195 151.454 111.195C153.671 111.195 155.549 110.436 157.089 108.92C158.629 107.38 159.399 105.49 159.399 103.25C159.399 101.01 158.629 99.1312 157.089 97.6145C155.549 96.0745 153.671 95.3045 151.454 95.3045C149.238 95.3045 147.359 96.0745 145.819 97.6145C144.303 99.1312 143.544 101.01 143.544 103.25C143.544 105.49 144.303 107.38 145.819 108.92ZM173.056 112.385C170.513 112.385 168.354 111.51 166.581 109.76C164.808 107.986 163.921 105.816 163.921 103.25C163.921 100.683 164.808 98.5245 166.581 96.7745C168.354 95.0012 170.513 94.1145 173.056 94.1145C175.623 94.1145 177.793 95.0012 179.566 96.7745C181.339 98.5245 182.226 100.683 182.226 103.25C182.226 105.816 181.339 107.986 179.566 109.76C177.793 111.51 175.623 112.385 173.056 112.385ZM167.421 108.92C168.961 110.436 170.839 111.195 173.056 111.195C175.273 111.195 177.151 110.436 178.691 108.92C180.231 107.38 181.001 105.49 181.001 103.25C181.001 101.01 180.231 99.1312 178.691 97.6145C177.151 96.0745 175.273 95.3045 173.056 95.3045C170.839 95.3045 168.961 96.0745 167.421 97.6145C165.904 99.1312 165.146 101.01 165.146 103.25C165.146 105.49 165.904 107.38 167.421 108.92ZM196.03 94.2195L197.71 87.4995H198.83L197.57 94.2195H196.03ZM199.985 94.2195L201.665 87.4995H202.785L201.525 94.2195H199.985ZM220.925 94.4995H222.15V112H220.925V103.845H209.165V112H207.905V94.4995H209.165V102.655H220.925V94.4995ZM235.634 94.1145C238.201 94.1145 240.277 95.0245 241.864 96.8445C243.474 98.6645 244.279 100.823 244.279 103.32C244.279 103.6 244.267 103.798 244.244 103.915H227.969C228.109 106.085 228.914 107.846 230.384 109.2C231.854 110.53 233.662 111.195 235.809 111.195C237.279 111.195 238.574 110.891 239.694 110.285C240.837 109.655 241.689 108.826 242.249 107.8L243.334 108.43C242.634 109.643 241.619 110.611 240.289 111.335C238.982 112.035 237.489 112.385 235.809 112.385C233.149 112.385 230.967 111.533 229.264 109.83C227.561 108.103 226.709 105.91 226.709 103.25C226.709 100.66 227.549 98.4895 229.229 96.7395C230.909 94.9895 233.044 94.1145 235.634 94.1145ZM235.634 95.3045C233.487 95.3045 231.691 96.0045 230.244 97.4045C228.821 98.7812 228.051 100.566 227.934 102.76H243.019C242.856 100.496 242.074 98.6878 240.674 97.3345C239.297 95.9812 237.617 95.3045 235.634 95.3045ZM266.537 112.385C263.947 112.385 261.777 111.51 260.027 109.76C258.277 108.01 257.402 105.84 257.402 103.25C257.402 100.66 258.277 98.4895 260.027 96.7395C261.777 94.9895 263.947 94.1145 266.537 94.1145C268.241 94.1145 269.781 94.5112 271.157 95.3045C272.534 96.0978 273.549 97.1595 274.202 98.4895L273.187 99.0845C272.627 97.9412 271.752 97.0312 270.562 96.3545C269.372 95.6545 268.031 95.3045 266.537 95.3045C264.297 95.3045 262.419 96.0745 260.902 97.6145C259.386 99.1312 258.627 101.01 258.627 103.25C258.627 105.49 259.386 107.38 260.902 108.92C262.419 110.436 264.297 111.195 266.537 111.195C268.031 111.195 269.361 110.856 270.527 110.18C271.717 109.48 272.616 108.558 273.222 107.415L274.237 108.01C273.561 109.34 272.534 110.401 271.157 111.195C269.781 111.988 268.241 112.385 266.537 112.385ZM291.293 112H289.613L279.883 103.285V112H278.623V94.4995H279.883V102.55L289.263 94.4995H290.943L281.178 102.9L291.293 112ZM309.209 94.4995H310.434V112H309.209V107.31C308.509 108.85 307.447 110.086 306.024 111.02C304.601 111.93 303.002 112.385 301.229 112.385C298.709 112.385 296.562 111.51 294.789 109.76C293.016 107.986 292.129 105.816 292.129 103.25C292.129 100.683 293.016 98.5245 294.789 96.7745C296.562 95.0012 298.709 94.1145 301.229 94.1145C303.002 94.1145 304.601 94.5812 306.024 95.5145C307.447 96.4245 308.509 97.6495 309.209 99.1895V94.4995ZM295.629 108.92C297.169 110.436 299.047 111.195 301.264 111.195C303.481 111.195 305.359 110.436 306.899 108.92C308.439 107.38 309.209 105.49 309.209 103.25C309.209 101.01 308.439 99.1312 306.899 97.6145C305.359 96.0745 303.481 95.3045 301.264 95.3045C299.047 95.3045 297.169 96.0745 295.629 97.6145C294.112 99.1312 293.354 101.01 293.354 103.25C293.354 105.49 294.112 107.38 295.629 108.92ZM335.26 112H333.72L325.39 103.25V112H324.165V103.25L315.835 112H314.295L322.975 102.9L314.645 94.4995H316.185L324.165 102.55V94.4995H325.39V102.55L333.37 94.4995H334.91L326.545 102.9L335.26 112ZM351.87 94.4995H353.13L345.535 113.61C344.835 115.336 343.878 116.69 342.665 117.67C341.451 118.673 340.133 119.116 338.71 119V117.845C339.876 117.961 340.95 117.611 341.93 116.795C342.933 115.978 343.738 114.823 344.345 113.33L344.695 112.56L336.47 94.4995H337.73L345.29 111.055L351.87 94.4995ZM358.721 87.4995L357.041 94.2195H355.921L357.181 87.4995H358.721ZM362.676 87.4995L360.996 94.2195H359.876L361.136 87.4995H362.676Z"/>
</mask>
<path d="M129.853 112.385C127.309 112.385 125.151 111.51 123.378 109.76C121.604 107.986 120.718 105.816 120.718 103.25C120.718 100.683 121.604 98.5245 123.378 96.7745C125.151 95.0012 127.309 94.1145 129.853 94.1145C132.419 94.1145 134.589 95.0012 136.363 96.7745C138.136 98.5245 139.023 100.683 139.023 103.25C139.023 105.816 138.136 107.986 136.363 109.76C134.589 111.51 132.419 112.385 129.853 112.385ZM124.218 108.92C125.758 110.436 127.636 111.195 129.853 111.195C132.069 111.195 133.948 110.436 135.488 108.92C137.028 107.38 137.798 105.49 137.798 103.25C137.798 101.01 137.028 99.1312 135.488 97.6145C133.948 96.0745 132.069 95.3045 129.853 95.3045C127.636 95.3045 125.758 96.0745 124.218 97.6145C122.701 99.1312 121.943 101.01 121.943 103.25C121.943 105.49 122.701 107.38 124.218 108.92ZM151.454 112.385C148.911 112.385 146.753 111.51 144.979 109.76C143.206 107.986 142.319 105.816 142.319 103.25C142.319 100.683 143.206 98.5245 144.979 96.7745C146.753 95.0012 148.911 94.1145 151.454 94.1145C154.021 94.1145 156.191 95.0012 157.964 96.7745C159.738 98.5245 160.624 100.683 160.624 103.25C160.624 105.816 159.738 107.986 157.964 109.76C156.191 111.51 154.021 112.385 151.454 112.385ZM145.819 108.92C147.359 110.436 149.238 111.195 151.454 111.195C153.671 111.195 155.549 110.436 157.089 108.92C158.629 107.38 159.399 105.49 159.399 103.25C159.399 101.01 158.629 99.1312 157.089 97.6145C155.549 96.0745 153.671 95.3045 151.454 95.3045C149.238 95.3045 147.359 96.0745 145.819 97.6145C144.303 99.1312 143.544 101.01 143.544 103.25C143.544 105.49 144.303 107.38 145.819 108.92ZM173.056 112.385C170.513 112.385 168.354 111.51 166.581 109.76C164.808 107.986 163.921 105.816 163.921 103.25C163.921 100.683 164.808 98.5245 166.581 96.7745C168.354 95.0012 170.513 94.1145 173.056 94.1145C175.623 94.1145 177.793 95.0012 179.566 96.7745C181.339 98.5245 182.226 100.683 182.226 103.25C182.226 105.816 181.339 107.986 179.566 109.76C177.793 111.51 175.623 112.385 173.056 112.385ZM167.421 108.92C168.961 110.436 170.839 111.195 173.056 111.195C175.273 111.195 177.151 110.436 178.691 108.92C180.231 107.38 181.001 105.49 181.001 103.25C181.001 101.01 180.231 99.1312 178.691 97.6145C177.151 96.0745 175.273 95.3045 173.056 95.3045C170.839 95.3045 168.961 96.0745 167.421 97.6145C165.904 99.1312 165.146 101.01 165.146 103.25C165.146 105.49 165.904 107.38 167.421 108.92ZM196.03 94.2195L197.71 87.4995H198.83L197.57 94.2195H196.03ZM199.985 94.2195L201.665 87.4995H202.785L201.525 94.2195H199.985ZM220.925 94.4995H222.15V112H220.925V103.845H209.165V112H207.905V94.4995H209.165V102.655H220.925V94.4995ZM235.634 94.1145C238.201 94.1145 240.277 95.0245 241.864 96.8445C243.474 98.6645 244.279 100.823 244.279 103.32C244.279 103.6 244.267 103.798 244.244 103.915H227.969C228.109 106.085 228.914 107.846 230.384 109.2C231.854 110.53 233.662 111.195 235.809 111.195C237.279 111.195 238.574 110.891 239.694 110.285C240.837 109.655 241.689 108.826 242.249 107.8L243.334 108.43C242.634 109.643 241.619 110.611 240.289 111.335C238.982 112.035 237.489 112.385 235.809 112.385C233.149 112.385 230.967 111.533 229.264 109.83C227.561 108.103 226.709 105.91 226.709 103.25C226.709 100.66 227.549 98.4895 229.229 96.7395C230.909 94.9895 233.044 94.1145 235.634 94.1145ZM235.634 95.3045C233.487 95.3045 231.691 96.0045 230.244 97.4045C228.821 98.7812 228.051 100.566 227.934 102.76H243.019C242.856 100.496 242.074 98.6878 240.674 97.3345C239.297 95.9812 237.617 95.3045 235.634 95.3045ZM266.537 112.385C263.947 112.385 261.777 111.51 260.027 109.76C258.277 108.01 257.402 105.84 257.402 103.25C257.402 100.66 258.277 98.4895 260.027 96.7395C261.777 94.9895 263.947 94.1145 266.537 94.1145C268.241 94.1145 269.781 94.5112 271.157 95.3045C272.534 96.0978 273.549 97.1595 274.202 98.4895L273.187 99.0845C272.627 97.9412 271.752 97.0312 270.562 96.3545C269.372 95.6545 268.031 95.3045 266.537 95.3045C264.297 95.3045 262.419 96.0745 260.902 97.6145C259.386 99.1312 258.627 101.01 258.627 103.25C258.627 105.49 259.386 107.38 260.902 108.92C262.419 110.436 264.297 111.195 266.537 111.195C268.031 111.195 269.361 110.856 270.527 110.18C271.717 109.48 272.616 108.558 273.222 107.415L274.237 108.01C273.561 109.34 272.534 110.401 271.157 111.195C269.781 111.988 268.241 112.385 266.537 112.385ZM291.293 112H289.613L279.883 103.285V112H278.623V94.4995H279.883V102.55L289.263 94.4995H290.943L281.178 102.9L291.293 112ZM309.209 94.4995H310.434V112H309.209V107.31C308.509 108.85 307.447 110.086 306.024 111.02C304.601 111.93 303.002 112.385 301.229 112.385C298.709 112.385 296.562 111.51 294.789 109.76C293.016 107.986 292.129 105.816 292.129 103.25C292.129 100.683 293.016 98.5245 294.789 96.7745C296.562 95.0012 298.709 94.1145 301.229 94.1145C303.002 94.1145 304.601 94.5812 306.024 95.5145C307.447 96.4245 308.509 97.6495 309.209 99.1895V94.4995ZM295.629 108.92C297.169 110.436 299.047 111.195 301.264 111.195C303.481 111.195 305.359 110.436 306.899 108.92C308.439 107.38 309.209 105.49 309.209 103.25C309.209 101.01 308.439 99.1312 306.899 97.6145C305.359 96.0745 303.481 95.3045 301.264 95.3045C299.047 95.3045 297.169 96.0745 295.629 97.6145C294.112 99.1312 293.354 101.01 293.354 103.25C293.354 105.49 294.112 107.38 295.629 108.92ZM335.26 112H333.72L325.39 103.25V112H324.165V103.25L315.835 112H314.295L322.975 102.9L314.645 94.4995H316.185L324.165 102.55V94.4995H325.39V102.55L333.37 94.4995H334.91L326.545 102.9L335.26 112ZM351.87 94.4995H353.13L345.535 113.61C344.835 115.336 343.878 116.69 342.665 117.67C341.451 118.673 340.133 119.116 338.71 119V117.845C339.876 117.961 340.95 117.611 341.93 116.795C342.933 115.978 343.738 114.823 344.345 113.33L344.695 112.56L336.47 94.4995H337.73L345.29 111.055L351.87 94.4995ZM358.721 87.4995L357.041 94.2195H355.921L357.181 87.4995H358.721ZM362.676 87.4995L360.996 94.2195H359.876L361.136 87.4995H362.676Z" fill="black"/>
<path d="M123.378 109.76L123.201 109.936L123.202 109.937L123.378 109.76ZM123.378 96.7745L123.553 96.9525L123.555 96.9513L123.378 96.7745ZM136.363 96.7745L136.186 96.9513L136.187 96.9525L136.363 96.7745ZM136.363 109.76L136.538 109.937L136.54 109.936L136.363 109.76ZM124.218 108.92L124.04 109.095L124.042 109.098L124.218 108.92ZM135.488 108.92L135.663 109.098L135.665 109.096L135.488 108.92ZM135.488 97.6145L135.311 97.7913L135.312 97.7926L135.488 97.6145ZM129.853 112.135C127.374 112.135 125.279 111.284 123.553 109.582L123.202 109.937C125.023 111.735 127.245 112.635 129.853 112.635V112.135ZM123.555 109.583C121.829 107.858 120.968 105.752 120.968 103.25H120.468C120.468 105.881 121.38 108.115 123.201 109.936L123.555 109.583ZM120.968 103.25C120.968 100.747 121.829 98.6539 123.553 96.9525L123.202 96.5966C121.38 98.3951 120.468 100.618 120.468 103.25H120.968ZM123.555 96.9513C125.28 95.2256 127.375 94.3645 129.853 94.3645V93.8645C127.244 93.8645 125.022 94.7768 123.201 96.5977L123.555 96.9513ZM129.853 94.3645C132.355 94.3645 134.461 95.2261 136.186 96.9513L136.54 96.5977C134.718 94.7763 132.484 93.8645 129.853 93.8645V94.3645ZM136.187 96.9525C137.911 98.6539 138.773 100.747 138.773 103.25H139.273C139.273 100.618 138.361 98.3951 136.538 96.5966L136.187 96.9525ZM138.773 103.25C138.773 105.752 137.911 107.858 136.186 109.583L136.54 109.936C138.361 108.115 139.273 105.881 139.273 103.25H138.773ZM136.187 109.582C134.462 111.284 132.356 112.135 129.853 112.135V112.635C132.483 112.635 134.717 111.735 136.538 109.937L136.187 109.582ZM124.042 109.098C125.63 110.662 127.572 111.445 129.853 111.445V110.945C127.7 110.945 125.885 110.211 124.393 108.741L124.042 109.098ZM129.853 111.445C132.133 111.445 134.075 110.662 135.663 109.098L135.312 108.741C133.82 110.211 132.006 110.945 129.853 110.945V111.445ZM135.665 109.096C137.253 107.508 138.048 105.554 138.048 103.25H137.548C137.548 105.425 136.803 107.251 135.311 108.743L135.665 109.096ZM138.048 103.25C138.048 100.945 137.253 99.0019 135.663 97.4364L135.312 97.7926C136.803 99.2604 137.548 101.074 137.548 103.25H138.048ZM135.665 97.4377C134.077 95.8499 132.134 95.0545 129.853 95.0545V95.5545C132.004 95.5545 133.819 96.2991 135.311 97.7913L135.665 97.4377ZM129.853 95.0545C127.571 95.0545 125.629 95.8499 124.041 97.4377L124.395 97.7913C125.887 96.2991 127.701 95.5545 129.853 95.5545V95.0545ZM124.041 97.4377C122.475 99.0036 121.693 100.946 121.693 103.25H122.193C122.193 101.073 122.927 99.2588 124.395 97.7913L124.041 97.4377ZM121.693 103.25C121.693 105.552 122.475 107.506 124.04 109.095L124.396 108.744C122.927 107.253 122.193 105.427 122.193 103.25H121.693ZM144.979 109.76L144.803 109.936L144.804 109.937L144.979 109.76ZM144.979 96.7745L145.155 96.9525L145.156 96.9513L144.979 96.7745ZM157.964 96.7745L157.788 96.9513L157.789 96.9525L157.964 96.7745ZM157.964 109.76L158.14 109.937L158.141 109.936L157.964 109.76ZM145.819 108.92L145.641 109.095L145.644 109.098L145.819 108.92ZM157.089 108.92L157.265 109.098L157.266 109.096L157.089 108.92ZM157.089 97.6145L156.913 97.7913L156.914 97.7926L157.089 97.6145ZM151.454 112.135C148.975 112.135 146.88 111.284 145.155 109.582L144.804 109.937C146.625 111.735 148.847 112.635 151.454 112.635V112.135ZM145.156 109.583C143.431 107.858 142.569 105.752 142.569 103.25H142.069C142.069 105.881 142.981 108.115 144.803 109.936L145.156 109.583ZM142.569 103.25C142.569 100.747 143.431 98.6539 145.155 96.9525L144.804 96.5966C142.981 98.3951 142.069 100.618 142.069 103.25H142.569ZM145.156 96.9513C146.882 95.2256 148.976 94.3645 151.454 94.3645V93.8645C148.846 93.8645 146.623 94.7768 144.803 96.5977L145.156 96.9513ZM151.454 94.3645C153.956 94.3645 156.062 95.2261 157.788 96.9513L158.141 96.5977C156.32 94.7763 154.086 93.8645 151.454 93.8645V94.3645ZM157.789 96.9525C159.513 98.6539 160.374 100.747 160.374 103.25H160.874C160.874 100.618 159.962 98.3951 158.14 96.5966L157.789 96.9525ZM160.374 103.25C160.374 105.752 159.513 107.858 157.788 109.583L158.141 109.936C159.963 108.115 160.874 105.881 160.874 103.25H160.374ZM157.789 109.582C156.064 111.284 153.957 112.135 151.454 112.135V112.635C154.084 112.635 156.318 111.735 158.14 109.937L157.789 109.582ZM145.644 109.098C147.232 110.662 149.174 111.445 151.454 111.445V110.945C149.301 110.945 147.487 110.211 145.995 108.741L145.644 109.098ZM151.454 111.445C153.735 111.445 155.677 110.662 157.265 109.098L156.914 108.741C155.422 110.211 153.607 110.945 151.454 110.945V111.445ZM157.266 109.096C158.854 107.508 159.649 105.554 159.649 103.25H159.149C159.149 105.425 158.404 107.251 156.913 108.743L157.266 109.096ZM159.649 103.25C159.649 100.945 158.854 99.0019 157.265 97.4364L156.914 97.7926C158.404 99.2604 159.149 101.074 159.149 103.25H159.649ZM157.266 97.4377C155.678 95.8499 153.736 95.0545 151.454 95.0545V95.5545C153.606 95.5545 155.42 96.2991 156.913 97.7913L157.266 97.4377ZM151.454 95.0545C149.173 95.0545 147.23 95.8499 145.643 97.4377L145.996 97.7913C147.488 96.2991 149.303 95.5545 151.454 95.5545V95.0545ZM145.643 97.4377C144.077 99.0036 143.294 100.946 143.294 103.25H143.794C143.794 101.073 144.529 99.2588 145.996 97.7913L145.643 97.4377ZM143.294 103.25C143.294 105.552 144.077 107.506 145.641 109.095L145.997 108.744C144.529 107.253 143.794 105.427 143.794 103.25H143.294ZM166.581 109.76L166.404 109.936L166.405 109.937L166.581 109.76ZM166.581 96.7745L166.756 96.9525L166.758 96.9513L166.581 96.7745ZM179.566 96.7745L179.389 96.9513L179.39 96.9525L179.566 96.7745ZM179.566 109.76L179.741 109.937L179.743 109.936L179.566 109.76ZM167.421 108.92L167.243 109.095L167.245 109.098L167.421 108.92ZM178.691 108.92L178.866 109.098L178.868 109.096L178.691 108.92ZM178.691 97.6145L178.514 97.7913L178.515 97.7926L178.691 97.6145ZM173.056 112.135C170.577 112.135 168.482 111.284 166.756 109.582L166.405 109.937C168.226 111.735 170.448 112.635 173.056 112.635V112.135ZM166.758 109.583C165.032 107.858 164.171 105.752 164.171 103.25H163.671C163.671 105.881 164.583 108.115 166.404 109.936L166.758 109.583ZM164.171 103.25C164.171 100.747 165.032 98.6539 166.756 96.9525L166.405 96.5966C164.583 98.3951 163.671 100.618 163.671 103.25H164.171ZM166.758 96.9513C168.483 95.2256 170.578 94.3645 173.056 94.3645V93.8645C170.447 93.8645 168.225 94.7768 166.404 96.5977L166.758 96.9513ZM173.056 94.3645C175.558 94.3645 177.664 95.2261 179.389 96.9513L179.743 96.5977C177.921 94.7763 175.687 93.8645 173.056 93.8645V94.3645ZM179.39 96.9525C181.114 98.6539 181.976 100.747 181.976 103.25H182.476C182.476 100.618 181.564 98.3951 179.741 96.5966L179.39 96.9525ZM181.976 103.25C181.976 105.752 181.114 107.858 179.389 109.583L179.743 109.936C181.564 108.115 182.476 105.881 182.476 103.25H181.976ZM179.39 109.582C177.665 111.284 175.559 112.135 173.056 112.135V112.635C175.686 112.635 177.92 111.735 179.741 109.937L179.39 109.582ZM167.245 109.098C168.834 110.662 170.775 111.445 173.056 111.445V110.945C170.903 110.945 169.088 110.211 167.596 108.741L167.245 109.098ZM173.056 111.445C175.336 111.445 177.278 110.662 178.866 109.098L178.515 108.741C177.024 110.211 175.209 110.945 173.056 110.945V111.445ZM178.868 109.096C180.456 107.508 181.251 105.554 181.251 103.25H180.751C180.751 105.425 180.006 107.251 178.514 108.743L178.868 109.096ZM181.251 103.25C181.251 100.945 180.456 99.0019 178.866 97.4364L178.515 97.7926C180.006 99.2604 180.751 101.074 180.751 103.25H181.251ZM178.868 97.4377C177.28 95.8499 175.338 95.0545 173.056 95.0545V95.5545C175.208 95.5545 177.022 96.2991 178.514 97.7913L178.868 97.4377ZM173.056 95.0545C170.774 95.0545 168.832 95.8499 167.244 97.4377L167.598 97.7913C169.09 96.2991 170.904 95.5545 173.056 95.5545V95.0545ZM167.244 97.4377C165.678 99.0036 164.896 100.946 164.896 103.25H165.396C165.396 101.073 166.13 99.2588 167.598 97.7913L167.244 97.4377ZM164.896 103.25C164.896 105.552 165.678 107.506 167.243 109.095L167.599 108.744C166.13 107.253 165.396 105.427 165.396 103.25H164.896ZM196.03 94.2195L195.787 94.1589L195.709 94.4695H196.03V94.2195ZM197.71 87.4995V87.2495H197.514L197.467 87.4389L197.71 87.4995ZM198.83 87.4995L199.075 87.5456L199.131 87.2495H198.83V87.4995ZM197.57 94.2195V94.4695H197.777L197.815 94.2656L197.57 94.2195ZM199.985 94.2195L199.742 94.1589L199.664 94.4695H199.985V94.2195ZM201.665 87.4995V87.2495H201.469L201.422 87.4389L201.665 87.4995ZM202.785 87.4995L203.03 87.5456L203.086 87.2495H202.785V87.4995ZM201.525 94.2195V94.4695H201.732L201.77 94.2656L201.525 94.2195ZM196.272 94.2801L197.952 87.5601L197.467 87.4389L195.787 94.1589L196.272 94.2801ZM197.71 87.7495H198.83V87.2495H197.71V87.7495ZM198.584 87.4534L197.324 94.1734L197.815 94.2656L199.075 87.5456L198.584 87.4534ZM197.57 93.9695H196.03V94.4695H197.57V93.9695ZM200.227 94.2801L201.907 87.5601L201.422 87.4389L199.742 94.1589L200.227 94.2801ZM201.665 87.7495H202.785V87.2495H201.665V87.7495ZM202.539 87.4534L201.279 94.1734L201.77 94.2656L203.03 87.5456L202.539 87.4534ZM201.525 93.9695H199.985V94.4695H201.525V93.9695ZM220.925 94.4995V94.2495H220.675V94.4995H220.925ZM222.15 94.4995H222.4V94.2495H222.15V94.4995ZM222.15 112V112.25H222.4V112H222.15ZM220.925 112H220.675V112.25H220.925V112ZM220.925 103.845H221.175V103.595H220.925V103.845ZM209.165 103.845V103.595H208.915V103.845H209.165ZM209.165 112V112.25H209.415V112H209.165ZM207.905 112H207.655V112.25H207.905V112ZM207.905 94.4995V94.2495H207.655V94.4995H207.905ZM209.165 94.4995H209.415V94.2495H209.165V94.4995ZM209.165 102.655H208.915V102.905H209.165V102.655ZM220.925 102.655V102.905H221.175V102.655H220.925ZM220.925 94.7495H222.15V94.2495H220.925V94.7495ZM221.9 94.4995V112H222.4V94.4995H221.9ZM222.15 111.75H220.925V112.25H222.15V111.75ZM221.175 112V103.845H220.675V112H221.175ZM220.925 103.595H209.165V104.095H220.925V103.595ZM208.915 103.845V112H209.415V103.845H208.915ZM209.165 111.75H207.905V112.25H209.165V111.75ZM208.155 112V94.4995H207.655V112H208.155ZM207.905 94.7495H209.165V94.2495H207.905V94.7495ZM208.915 94.4995V102.655H209.415V94.4995H208.915ZM209.165 102.905H220.925V102.405H209.165V102.905ZM221.175 102.655V94.4995H220.675V102.655H221.175ZM241.864 96.8445L241.676 97.0088L241.677 97.0102L241.864 96.8445ZM244.244 103.915V104.165H244.449L244.489 103.964L244.244 103.915ZM227.969 103.915V103.665H227.702L227.719 103.931L227.969 103.915ZM230.384 109.2L230.215 109.383L230.216 109.385L230.384 109.2ZM239.694 110.285L239.813 110.504L239.815 110.503L239.694 110.285ZM242.249 107.8L242.374 107.583L242.152 107.454L242.029 107.68L242.249 107.8ZM243.334 108.43L243.551 108.554L243.675 108.338L243.459 108.213L243.334 108.43ZM240.289 111.335L240.407 111.555L240.408 111.554L240.289 111.335ZM229.264 109.83L229.086 110.005L229.087 110.006L229.264 109.83ZM229.229 96.7395L229.409 96.9126L229.409 96.9126L229.229 96.7395ZM230.244 97.4045L230.418 97.5842L230.418 97.5842L230.244 97.4045ZM227.934 102.76L227.684 102.746L227.67 103.01H227.934V102.76ZM243.019 102.76V103.01H243.288L243.268 102.742L243.019 102.76ZM240.674 97.3345L240.499 97.5128L240.5 97.5143L240.674 97.3345ZM235.634 94.3645C238.134 94.3645 240.14 95.247 241.676 97.0088L242.052 96.6802C240.415 94.802 238.268 93.8645 235.634 93.8645V94.3645ZM241.677 97.0102C243.245 98.7831 244.029 100.882 244.029 103.32H244.529C244.529 100.764 243.703 98.5459 242.051 96.6789L241.677 97.0102ZM244.029 103.32C244.029 103.599 244.017 103.775 243.999 103.865L244.489 103.964C244.518 103.82 244.529 103.6 244.529 103.32H244.029ZM244.244 103.665H227.969V104.165H244.244V103.665ZM227.719 103.931C227.863 106.159 228.693 107.983 230.215 109.383L230.553 109.016C229.135 107.71 228.355 106.01 228.218 103.898L227.719 103.931ZM230.216 109.385C231.736 110.76 233.606 111.445 235.809 111.445V110.945C233.719 110.945 231.972 110.299 230.552 109.014L230.216 109.385ZM235.809 111.445C237.314 111.445 238.651 111.134 239.813 110.504L239.575 110.065C238.497 110.649 237.244 110.945 235.809 110.945V111.445ZM239.815 110.503C240.995 109.853 241.883 108.992 242.468 107.919L242.029 107.68C241.495 108.66 240.68 109.456 239.573 110.066L239.815 110.503ZM242.123 108.016L243.208 108.646L243.459 108.213L242.374 107.583L242.123 108.016ZM243.117 108.305C242.442 109.475 241.462 110.412 240.17 111.115L240.408 111.554C241.775 110.811 242.826 109.811 243.551 108.554L243.117 108.305ZM240.171 111.114C238.905 111.792 237.453 112.135 235.809 112.135V112.635C237.525 112.635 239.059 112.277 240.407 111.555L240.171 111.114ZM235.809 112.135C233.208 112.135 231.092 111.304 229.441 109.653L229.087 110.006C230.843 111.762 233.09 112.635 235.809 112.635V112.135ZM229.442 109.654C227.789 107.979 226.959 105.851 226.959 103.25H226.459C226.459 105.968 227.332 108.227 229.086 110.005L229.442 109.654ZM226.959 103.25C226.959 100.719 227.777 98.6127 229.409 96.9126L229.049 96.5664C227.321 98.3663 226.459 100.6 226.459 103.25H226.959ZM229.409 96.9126C231.039 95.2153 233.107 94.3645 235.634 94.3645V93.8645C232.981 93.8645 230.779 94.7637 229.049 96.5664L229.409 96.9126ZM235.634 95.0545C233.427 95.0545 231.567 95.7765 230.07 97.2249L230.418 97.5842C231.815 96.2325 233.547 95.5545 235.634 95.5545V95.0545ZM230.07 97.2248C228.596 98.6503 227.804 100.497 227.684 102.746L228.184 102.773C228.297 100.635 229.045 98.912 230.418 97.5842L230.07 97.2248ZM227.934 103.01H243.019V102.51H227.934V103.01ZM243.268 102.742C243.101 100.428 242.299 98.5578 240.848 97.1548L240.5 97.5143C241.849 98.8179 242.61 100.565 242.77 102.778L243.268 102.742ZM240.849 97.1562C239.424 95.7555 237.681 95.0545 235.634 95.0545V95.5545C237.554 95.5545 239.17 96.2068 240.499 97.5128L240.849 97.1562ZM260.027 109.76L259.851 109.936L260.027 109.76ZM260.027 96.7395L260.204 96.9163L260.204 96.9163L260.027 96.7395ZM271.157 95.3045L271.282 95.0879L271.282 95.0879L271.157 95.3045ZM274.202 98.4895L274.329 98.7052L274.529 98.5877L274.427 98.3793L274.202 98.4895ZM273.187 99.0845L272.963 99.1945L273.081 99.4364L273.314 99.3002L273.187 99.0845ZM270.562 96.3545L270.436 96.57L270.439 96.5718L270.562 96.3545ZM260.902 97.6145L261.079 97.7913L261.08 97.7899L260.902 97.6145ZM260.902 108.92L260.724 109.095L260.726 109.096L260.902 108.92ZM270.527 110.18L270.653 110.396L270.654 110.395L270.527 110.18ZM273.222 107.415L273.349 107.199L273.124 107.067L273.001 107.297L273.222 107.415ZM274.237 108.01L274.46 108.123L274.567 107.913L274.364 107.794L274.237 108.01ZM271.157 111.195L271.282 111.411L271.282 111.411L271.157 111.195ZM266.537 112.135C264.01 112.135 261.905 111.283 260.204 109.583L259.851 109.936C261.65 111.736 263.884 112.635 266.537 112.635V112.135ZM260.204 109.583C258.503 107.882 257.652 105.777 257.652 103.25H257.152C257.152 105.902 258.051 108.137 259.851 109.936L260.204 109.583ZM257.652 103.25C257.652 100.722 258.503 98.617 260.204 96.9163L259.851 96.5627C258.051 98.362 257.152 100.597 257.152 103.25H257.652ZM260.204 96.9163C261.905 95.2155 264.01 94.3645 266.537 94.3645V93.8645C263.884 93.8645 261.65 94.7635 259.851 96.5627L260.204 96.9163ZM266.537 94.3645C268.2 94.3645 269.697 94.7512 271.033 95.5211L271.282 95.0879C269.865 94.2711 268.281 93.8645 266.537 93.8645V94.3645ZM271.033 95.5211C272.369 96.2915 273.348 97.3176 273.978 98.5997L274.427 98.3793C273.75 97.0015 272.699 95.9041 271.282 95.0879L271.033 95.5211ZM274.076 98.2738L273.061 98.8688L273.314 99.3002L274.329 98.7052L274.076 98.2738ZM273.412 98.9745C272.828 97.7827 271.916 96.8367 270.686 96.1372L270.439 96.5718C271.589 97.2256 272.427 98.0997 272.963 99.1945L273.412 98.9745ZM270.689 96.139C269.458 95.4146 268.071 95.0545 266.537 95.0545V95.5545C267.99 95.5545 269.287 95.8944 270.436 96.57L270.689 96.139ZM266.537 95.0545C264.233 95.0545 262.29 95.8495 260.724 97.4391L261.08 97.7899C262.548 96.2996 264.362 95.5545 266.537 95.5545V95.0545ZM260.726 97.4377C259.16 99.0036 258.377 100.946 258.377 103.25H258.877C258.877 101.073 259.612 99.2588 261.079 97.7913L260.726 97.4377ZM258.377 103.25C258.377 105.552 259.16 107.506 260.724 109.095L261.08 108.744C259.612 107.253 258.877 105.427 258.877 103.25H258.377ZM260.726 109.096C262.291 110.662 264.234 111.445 266.537 111.445V110.945C264.36 110.945 262.547 110.21 261.079 108.743L260.726 109.096ZM266.537 111.445C268.07 111.445 269.444 111.097 270.653 110.396L270.402 109.963C269.277 110.616 267.991 110.945 266.537 110.945V111.445ZM270.654 110.395C271.881 109.673 272.813 108.719 273.443 107.532L273.001 107.297C272.418 108.397 271.553 109.286 270.401 109.964L270.654 110.395ZM273.096 107.63L274.111 108.225L274.364 107.794L273.349 107.199L273.096 107.63ZM274.015 107.896C273.361 109.18 272.37 110.207 271.033 110.978L271.282 111.411C272.698 110.595 273.76 109.499 274.46 108.123L274.015 107.896ZM271.033 110.978C269.697 111.748 268.2 112.135 266.537 112.135V112.635C268.281 112.635 269.865 112.228 271.282 111.411L271.033 110.978ZM291.293 112V112.25H291.945L291.46 111.814L291.293 112ZM289.613 112L289.446 112.186L289.518 112.25H289.613V112ZM279.883 103.285L280.05 103.098L279.633 102.725V103.285H279.883ZM279.883 112V112.25H280.133V112H279.883ZM278.623 112H278.373V112.25H278.623V112ZM278.623 94.4995V94.2495H278.373V94.4995H278.623ZM279.883 94.4995H280.133V94.2495H279.883V94.4995ZM279.883 102.55H279.633V103.094L280.046 102.739L279.883 102.55ZM289.263 94.4995V94.2495H289.171L289.1 94.3098L289.263 94.4995ZM290.943 94.4995L291.106 94.689L291.617 94.2495H290.943V94.4995ZM281.178 102.9L281.015 102.71L280.8 102.895L281.011 103.085L281.178 102.9ZM291.293 111.75H289.613V112.25H291.293V111.75ZM289.78 111.813L280.05 103.098L279.716 103.471L289.446 112.186L289.78 111.813ZM279.633 103.285V112H280.133V103.285H279.633ZM279.883 111.75H278.623V112.25H279.883V111.75ZM278.873 112V94.4995H278.373V112H278.873ZM278.623 94.7495H279.883V94.2495H278.623V94.7495ZM279.633 94.4995V102.55H280.133V94.4995H279.633ZM280.046 102.739L289.426 94.6892L289.1 94.3098L279.72 102.36L280.046 102.739ZM289.263 94.7495H290.943V94.2495H289.263V94.7495ZM290.78 94.31L281.015 102.71L281.341 103.089L291.106 94.689L290.78 94.31ZM281.011 103.085L291.126 112.185L291.46 111.814L281.345 102.714L281.011 103.085ZM309.209 94.4995V94.2495H308.959V94.4995H309.209ZM310.434 94.4995H310.684V94.2495H310.434V94.4995ZM310.434 112V112.25H310.684V112H310.434ZM309.209 112H308.959V112.25H309.209V112ZM309.209 107.31H309.459L308.981 107.206L309.209 107.31ZM306.024 111.02L306.159 111.23L306.161 111.229L306.024 111.02ZM294.789 109.76L294.612 109.936L294.613 109.937L294.789 109.76ZM294.789 96.7745L294.964 96.9525L294.966 96.9513L294.789 96.7745ZM306.024 95.5145L305.887 95.7236L305.889 95.7251L306.024 95.5145ZM309.209 99.1895L308.981 99.293L309.459 99.1895H309.209ZM295.629 108.92L295.451 109.095L295.453 109.098L295.629 108.92ZM306.899 108.92L307.074 109.098L307.076 109.096L306.899 108.92ZM306.899 97.6145L306.722 97.7913L306.723 97.7926L306.899 97.6145ZM309.209 94.7495H310.434V94.2495H309.209V94.7495ZM310.184 94.4995V112H310.684V94.4995H310.184ZM310.434 111.75H309.209V112.25H310.434V111.75ZM309.459 112V107.31H308.959V112H309.459ZM308.981 107.206C308.301 108.703 307.271 109.903 305.887 110.81L306.161 111.229C307.624 110.269 308.717 108.996 309.436 107.413L308.981 107.206ZM305.889 110.809C304.508 111.692 302.957 112.135 301.229 112.135V112.635C303.047 112.635 304.693 112.167 306.159 111.23L305.889 110.809ZM301.229 112.135C298.774 112.135 296.69 111.285 294.964 109.582L294.613 109.937C296.434 111.734 298.644 112.635 301.229 112.635V112.135ZM294.966 109.583C293.24 107.858 292.379 105.752 292.379 103.25H291.879C291.879 105.881 292.791 108.115 294.612 109.936L294.966 109.583ZM292.379 103.25C292.379 100.747 293.24 98.6539 294.964 96.9525L294.613 96.5966C292.791 98.3951 291.879 100.618 291.879 103.25H292.379ZM294.966 96.9513C296.692 95.2251 298.775 94.3645 301.229 94.3645V93.8645C298.643 93.8645 296.433 94.7773 294.612 96.5977L294.966 96.9513ZM301.229 94.3645C302.956 94.3645 304.506 94.8181 305.887 95.7236L306.161 95.3055C304.695 94.3443 303.049 93.8645 301.229 93.8645V94.3645ZM305.889 95.7251C307.272 96.6091 308.301 97.7968 308.981 99.293L309.436 99.0861C308.717 97.5022 307.623 96.2399 306.159 95.3039L305.889 95.7251ZM309.459 99.1895V94.4995H308.959V99.1895H309.459ZM295.453 109.098C297.042 110.662 298.983 111.445 301.264 111.445V110.945C299.111 110.945 297.296 110.211 295.804 108.741L295.453 109.098ZM301.264 111.445C303.544 111.445 305.486 110.662 307.074 109.098L306.723 108.741C305.232 110.211 303.417 110.945 301.264 110.945V111.445ZM307.076 109.096C308.664 107.508 309.459 105.554 309.459 103.25H308.959C308.959 105.425 308.214 107.251 306.722 108.743L307.076 109.096ZM309.459 103.25C309.459 100.945 308.664 99.0019 307.074 97.4364L306.723 97.7926C308.214 99.2604 308.959 101.074 308.959 103.25H309.459ZM307.076 97.4377C305.488 95.8499 303.546 95.0545 301.264 95.0545V95.5545C303.416 95.5545 305.23 96.2991 306.722 97.7913L307.076 97.4377ZM301.264 95.0545C298.982 95.0545 297.04 95.8499 295.452 97.4377L295.806 97.7913C297.298 96.2991 299.112 95.5545 301.264 95.5545V95.0545ZM295.452 97.4377C293.886 99.0036 293.104 100.946 293.104 103.25H293.604C293.604 101.073 294.338 99.2588 295.806 97.7913L295.452 97.4377ZM293.104 103.25C293.104 105.552 293.886 107.506 295.451 109.095L295.807 108.744C294.338 107.253 293.604 105.427 293.604 103.25H293.104ZM335.26 112V112.25H335.846L335.441 111.827L335.26 112ZM333.72 112L333.539 112.172L333.613 112.25H333.72V112ZM325.39 103.25L325.571 103.077L325.14 102.624V103.25H325.39ZM325.39 112V112.25H325.64V112H325.39ZM324.165 112H323.915V112.25H324.165V112ZM324.165 103.25H324.415V102.624L323.984 103.077L324.165 103.25ZM315.835 112V112.25H315.942L316.016 112.172L315.835 112ZM314.295 112L314.114 111.827L313.711 112.25H314.295V112ZM322.975 102.9L323.156 103.072L323.324 102.896L323.153 102.723L322.975 102.9ZM314.645 94.4995V94.2495H314.045L314.468 94.6755L314.645 94.4995ZM316.185 94.4995L316.363 94.3235L316.289 94.2495H316.185V94.4995ZM324.165 102.55L323.988 102.726L324.415 103.157V102.55H324.165ZM324.165 94.4995V94.2495H323.915V94.4995H324.165ZM325.39 94.4995H325.64V94.2495H325.39V94.4995ZM325.39 102.55H325.14V103.157L325.568 102.726L325.39 102.55ZM333.37 94.4995V94.2495H333.266L333.193 94.3235L333.37 94.4995ZM334.91 94.4995L335.087 94.6759L335.512 94.2495H334.91V94.4995ZM326.545 102.9L326.368 102.723L326.196 102.896L326.365 103.072L326.545 102.9ZM335.26 111.75H333.72V112.25H335.26V111.75ZM333.901 111.827L325.571 103.077L325.209 103.422L333.539 112.172L333.901 111.827ZM325.14 103.25V112H325.64V103.25H325.14ZM325.39 111.75H324.165V112.25H325.39V111.75ZM324.415 112V103.25H323.915V112H324.415ZM323.984 103.077L315.654 111.827L316.016 112.172L324.346 103.422L323.984 103.077ZM315.835 111.75H314.295V112.25H315.835V111.75ZM314.476 112.172L323.156 103.072L322.794 102.727L314.114 111.827L314.476 112.172ZM323.153 102.723L314.823 94.3235L314.468 94.6755L322.798 103.076L323.153 102.723ZM314.645 94.7495H316.185V94.2495H314.645V94.7495ZM316.008 94.6755L323.988 102.726L324.343 102.374L316.363 94.3235L316.008 94.6755ZM324.415 102.55V94.4995H323.915V102.55H324.415ZM324.165 94.7495H325.39V94.2495H324.165V94.7495ZM325.14 94.4995V102.55H325.64V94.4995H325.14ZM325.568 102.726L333.548 94.6755L333.193 94.3235L325.213 102.374L325.568 102.726ZM333.37 94.7495H334.91V94.2495H333.37V94.7495ZM334.733 94.3231L326.368 102.723L326.722 103.076L335.087 94.6759L334.733 94.3231ZM326.365 103.072L335.08 112.172L335.441 111.827L326.726 102.727L326.365 103.072ZM351.87 94.4995V94.2495H351.7L351.637 94.4072L351.87 94.4995ZM353.13 94.4995L353.362 94.5918L353.498 94.2495H353.13V94.4995ZM345.535 113.61L345.766 113.703L345.767 113.702L345.535 113.61ZM342.665 117.67L342.507 117.475L342.505 117.477L342.665 117.67ZM338.71 119H338.46V119.23L338.689 119.249L338.71 119ZM338.71 117.845L338.734 117.596L338.46 117.568V117.845H338.71ZM341.93 116.795L341.772 116.601L341.769 116.602L341.93 116.795ZM344.345 113.33L344.117 113.226L344.113 113.235L344.345 113.33ZM344.695 112.56L344.922 112.663L344.969 112.559L344.922 112.456L344.695 112.56ZM336.47 94.4995V94.2495H336.081L336.242 94.6031L336.47 94.4995ZM337.73 94.4995L337.957 94.3957L337.89 94.2495H337.73V94.4995ZM345.29 111.055L345.062 111.158L345.305 111.691L345.522 111.147L345.29 111.055ZM351.87 94.7495H353.13V94.2495H351.87V94.7495ZM352.897 94.4072L345.302 113.517L345.767 113.702L353.362 94.5918L352.897 94.4072ZM345.303 113.516C344.616 115.211 343.682 116.526 342.507 117.475L342.822 117.864C344.074 116.853 345.053 115.462 345.766 113.703L345.303 113.516ZM342.505 117.477C341.336 118.443 340.081 118.861 338.73 118.75L338.689 119.249C340.184 119.371 341.566 118.902 342.824 117.862L342.505 117.477ZM338.96 119V117.845H338.46V119H338.96ZM338.685 118.093C339.924 118.217 341.063 117.842 342.09 116.987L341.769 116.602C340.836 117.38 339.828 117.705 338.734 117.596L338.685 118.093ZM342.087 116.988C343.13 116.139 343.957 114.946 344.576 113.424L344.113 113.235C343.518 114.699 342.735 115.816 341.772 116.601L342.087 116.988ZM344.572 113.433L344.922 112.663L344.467 112.456L344.117 113.226L344.572 113.433ZM344.922 112.456L336.697 94.3959L336.242 94.6031L344.467 112.663L344.922 112.456ZM336.47 94.7495H337.73V94.2495H336.47V94.7495ZM337.502 94.6034L345.062 111.158L345.517 110.951L337.957 94.3957L337.502 94.6034ZM345.522 111.147L352.102 94.5919L351.637 94.4072L345.057 110.962L345.522 111.147ZM358.721 87.4995L358.964 87.5601L359.042 87.2495H358.721V87.4995ZM357.041 94.2195V94.4695H357.237L357.284 94.2801L357.041 94.2195ZM355.921 94.2195L355.676 94.1734L355.62 94.4695H355.921V94.2195ZM357.181 87.4995V87.2495H356.974L356.936 87.4534L357.181 87.4995ZM362.676 87.4995L362.919 87.5601L362.997 87.2495H362.676V87.4995ZM360.996 94.2195V94.4695H361.192L361.239 94.2801L360.996 94.2195ZM359.876 94.2195L359.631 94.1734L359.575 94.4695H359.876V94.2195ZM361.136 87.4995V87.2495H360.929L360.891 87.4534L361.136 87.4995ZM358.479 87.4389L356.799 94.1589L357.284 94.2801L358.964 87.5601L358.479 87.4389ZM357.041 93.9695H355.921V94.4695H357.041V93.9695ZM356.167 94.2656L357.427 87.5456L356.936 87.4534L355.676 94.1734L356.167 94.2656ZM357.181 87.7495H358.721V87.2495H357.181V87.7495ZM362.434 87.4389L360.754 94.1589L361.239 94.2801L362.919 87.5601L362.434 87.4389ZM360.996 93.9695H359.876V94.4695H360.996V93.9695ZM360.122 94.2656L361.382 87.5456L360.891 87.4534L359.631 94.1734L360.122 94.2656ZM361.136 87.7495H362.676V87.2495H361.136V87.7495Z" fill="black" mask="url(#path-3-outside-1_71_109)"/>
<path d="M204 115L222.5 87.4995L214.5 120L235 87.4995L226 120C234.833 109.166 252.1 87.4995 250.5 87.4995C248.9 87.4995 242.833 109.166 240 120L261 87.4995L257 115L281 83.4995L273.5 120L293.5 83.4995L286 120L307.5 83.4995L302 115L319 78.9995L313 115L328.5 87.4995L328 120L341.5 83.4995L335.5 120L352.5 87.4995" stroke="black" stroke-width="2"/>
<path d="M354.5 118L336 90.4995L344 123L323.5 90.4995L332.5 123C323.667 112.166 306.4 90.4995 308 90.4995C309.6 90.4995 315.667 112.166 318.5 123L297.5 90.4995L301.5 118L277.5 86.4995L285 123L265 86.4995L272.5 123L251 86.4995L256.5 118L239.5 81.9995L245.5 118L230 90.4995L230.5 123L217 86.4995L223 123L206 90.4995" stroke="black" stroke-width="2"/>
<defs>
<linearGradient id="paint0_linear_71_109" x1="16" y1="12.5" x2="483" y2="320" gradientUnits="userSpaceOnUse">
<stop stop-color="white"/>
<stop offset="0.445" stop-color="#F9C7E4"/>
<stop offset="0.99" stop-color="#FDFDFD"/>
</linearGradient>
</defs>
</svg>
