<svg width="484" height="320" viewBox="0 0 484 320" fill="none" xmlns="http://www.w3.org/2000/svg">
<rect x="0.5" y="0.5" width="483" height="319" rx="39.5" fill="white" stroke="black"/>
<mask id="path-2-outside-1_71_105" maskUnits="userSpaceOnUse" x="168" y="87" width="148" height="33" fill="black">
<rect fill="white" x="168" y="87" width="148" height="33"/>
<path d="M186.566 96.88C188.316 98.6067 189.191 100.73 189.191 103.25C189.191 105.77 188.316 107.893 186.566 109.62C184.816 111.347 182.541 112.28 179.741 112.42V119H178.481V112.42C175.681 112.28 173.406 111.347 171.656 109.62C169.906 107.893 169.031 105.77 169.031 103.25C169.031 100.73 169.906 98.6067 171.656 96.88C173.406 95.1533 175.681 94.22 178.481 94.08V87.5H179.741V94.08C182.541 94.22 184.816 95.1533 186.566 96.88ZM172.531 97.685C171.014 99.1783 170.256 101.033 170.256 103.25C170.256 105.467 171.014 107.322 172.531 108.815C174.047 110.308 176.031 111.125 178.481 111.265V95.235C176.031 95.375 174.047 96.1917 172.531 97.685ZM179.741 111.265C182.191 111.125 184.174 110.308 185.691 108.815C187.207 107.322 187.966 105.467 187.966 103.25C187.966 101.033 187.207 99.1783 185.691 97.685C184.174 96.1917 182.191 95.375 179.741 95.235V111.265ZM202.978 94.115C205.498 94.115 207.645 95.0017 209.418 96.775C211.191 98.525 212.078 100.683 212.078 103.25C212.078 105.817 211.191 107.987 209.418 109.76C207.645 111.51 205.498 112.385 202.978 112.385C201.181 112.385 199.583 111.93 198.183 111.02C196.783 110.11 195.721 108.885 194.998 107.345V119H193.738V94.5H194.998V99.155C195.721 97.615 196.783 96.39 198.183 95.48C199.583 94.57 201.181 94.115 202.978 94.115ZM197.273 108.92C198.813 110.437 200.691 111.195 202.908 111.195C205.125 111.195 206.991 110.437 208.508 108.92C210.048 107.38 210.818 105.49 210.818 103.25C210.818 101.01 210.048 99.1317 208.508 97.615C206.991 96.075 205.125 95.305 202.908 95.305C200.691 95.305 198.813 96.075 197.273 97.615C195.756 99.1317 194.998 101.01 194.998 103.25C194.998 105.49 195.756 107.38 197.273 108.92ZM229.729 94.5H230.849V112H229.624V96.6L217.724 112H216.604V94.5H217.864V109.9L229.729 94.5ZM250.808 94.5V112H249.548V95.655H239.888V104.79C239.888 109.9 238.044 112.303 234.358 112V110.845C235.804 110.962 236.878 110.553 237.578 109.62C238.278 108.663 238.628 107.053 238.628 104.79V94.5H250.808ZM272.449 94.5H273.674V112H272.449V107.31C271.749 108.85 270.687 110.087 269.264 111.02C267.84 111.93 266.242 112.385 264.469 112.385C261.949 112.385 259.802 111.51 258.029 109.76C256.255 107.987 255.369 105.817 255.369 103.25C255.369 100.683 256.255 98.525 258.029 96.775C259.802 95.0017 261.949 94.115 264.469 94.115C266.242 94.115 267.84 94.5817 269.264 95.515C270.687 96.425 271.749 97.65 272.449 99.19V94.5ZM258.869 108.92C260.409 110.437 262.287 111.195 264.504 111.195C266.72 111.195 268.599 110.437 270.139 108.92C271.679 107.38 272.449 105.49 272.449 103.25C272.449 101.01 271.679 99.1317 270.139 97.615C268.599 96.075 266.72 95.305 264.504 95.305C262.287 95.305 260.409 96.075 258.869 97.615C257.352 99.1317 256.594 101.01 256.594 103.25C256.594 105.49 257.352 107.38 258.869 108.92ZM292.515 94.5H293.74V112H292.515V103.845H280.755V112H279.495V94.5H280.755V102.655H292.515V94.5ZM307.433 112.385C304.843 112.385 302.673 111.51 300.923 109.76C299.173 108.01 298.298 105.84 298.298 103.25C298.298 100.66 299.173 98.49 300.923 96.74C302.673 94.99 304.843 94.115 307.433 94.115C309.137 94.115 310.677 94.5117 312.053 95.305C313.43 96.0983 314.445 97.16 315.098 98.49L314.083 99.085C313.523 97.9417 312.648 97.0317 311.458 96.355C310.268 95.655 308.927 95.305 307.433 95.305C305.193 95.305 303.315 96.075 301.798 97.615C300.282 99.1317 299.523 101.01 299.523 103.25C299.523 105.49 300.282 107.38 301.798 108.92C303.315 110.437 305.193 111.195 307.433 111.195C308.927 111.195 310.257 110.857 311.423 110.18C312.613 109.48 313.512 108.558 314.118 107.415L315.133 108.01C314.457 109.34 313.43 110.402 312.053 111.195C310.677 111.988 309.137 112.385 307.433 112.385Z"/>
</mask>
<path d="M186.566 96.88C188.316 98.6067 189.191 100.73 189.191 103.25C189.191 105.77 188.316 107.893 186.566 109.62C184.816 111.347 182.541 112.28 179.741 112.42V119H178.481V112.42C175.681 112.28 173.406 111.347 171.656 109.62C169.906 107.893 169.031 105.77 169.031 103.25C169.031 100.73 169.906 98.6067 171.656 96.88C173.406 95.1533 175.681 94.22 178.481 94.08V87.5H179.741V94.08C182.541 94.22 184.816 95.1533 186.566 96.88ZM172.531 97.685C171.014 99.1783 170.256 101.033 170.256 103.25C170.256 105.467 171.014 107.322 172.531 108.815C174.047 110.308 176.031 111.125 178.481 111.265V95.235C176.031 95.375 174.047 96.1917 172.531 97.685ZM179.741 111.265C182.191 111.125 184.174 110.308 185.691 108.815C187.207 107.322 187.966 105.467 187.966 103.25C187.966 101.033 187.207 99.1783 185.691 97.685C184.174 96.1917 182.191 95.375 179.741 95.235V111.265ZM202.978 94.115C205.498 94.115 207.645 95.0017 209.418 96.775C211.191 98.525 212.078 100.683 212.078 103.25C212.078 105.817 211.191 107.987 209.418 109.76C207.645 111.51 205.498 112.385 202.978 112.385C201.181 112.385 199.583 111.93 198.183 111.02C196.783 110.11 195.721 108.885 194.998 107.345V119H193.738V94.5H194.998V99.155C195.721 97.615 196.783 96.39 198.183 95.48C199.583 94.57 201.181 94.115 202.978 94.115ZM197.273 108.92C198.813 110.437 200.691 111.195 202.908 111.195C205.125 111.195 206.991 110.437 208.508 108.92C210.048 107.38 210.818 105.49 210.818 103.25C210.818 101.01 210.048 99.1317 208.508 97.615C206.991 96.075 205.125 95.305 202.908 95.305C200.691 95.305 198.813 96.075 197.273 97.615C195.756 99.1317 194.998 101.01 194.998 103.25C194.998 105.49 195.756 107.38 197.273 108.92ZM229.729 94.5H230.849V112H229.624V96.6L217.724 112H216.604V94.5H217.864V109.9L229.729 94.5ZM250.808 94.5V112H249.548V95.655H239.888V104.79C239.888 109.9 238.044 112.303 234.358 112V110.845C235.804 110.962 236.878 110.553 237.578 109.62C238.278 108.663 238.628 107.053 238.628 104.79V94.5H250.808ZM272.449 94.5H273.674V112H272.449V107.31C271.749 108.85 270.687 110.087 269.264 111.02C267.84 111.93 266.242 112.385 264.469 112.385C261.949 112.385 259.802 111.51 258.029 109.76C256.255 107.987 255.369 105.817 255.369 103.25C255.369 100.683 256.255 98.525 258.029 96.775C259.802 95.0017 261.949 94.115 264.469 94.115C266.242 94.115 267.84 94.5817 269.264 95.515C270.687 96.425 271.749 97.65 272.449 99.19V94.5ZM258.869 108.92C260.409 110.437 262.287 111.195 264.504 111.195C266.72 111.195 268.599 110.437 270.139 108.92C271.679 107.38 272.449 105.49 272.449 103.25C272.449 101.01 271.679 99.1317 270.139 97.615C268.599 96.075 266.72 95.305 264.504 95.305C262.287 95.305 260.409 96.075 258.869 97.615C257.352 99.1317 256.594 101.01 256.594 103.25C256.594 105.49 257.352 107.38 258.869 108.92ZM292.515 94.5H293.74V112H292.515V103.845H280.755V112H279.495V94.5H280.755V102.655H292.515V94.5ZM307.433 112.385C304.843 112.385 302.673 111.51 300.923 109.76C299.173 108.01 298.298 105.84 298.298 103.25C298.298 100.66 299.173 98.49 300.923 96.74C302.673 94.99 304.843 94.115 307.433 94.115C309.137 94.115 310.677 94.5117 312.053 95.305C313.43 96.0983 314.445 97.16 315.098 98.49L314.083 99.085C313.523 97.9417 312.648 97.0317 311.458 96.355C310.268 95.655 308.927 95.305 307.433 95.305C305.193 95.305 303.315 96.075 301.798 97.615C300.282 99.1317 299.523 101.01 299.523 103.25C299.523 105.49 300.282 107.38 301.798 108.92C303.315 110.437 305.193 111.195 307.433 111.195C308.927 111.195 310.257 110.857 311.423 110.18C312.613 109.48 313.512 108.558 314.118 107.415L315.133 108.01C314.457 109.34 313.43 110.402 312.053 111.195C310.677 111.988 309.137 112.385 307.433 112.385Z" fill="black"/>
<path d="M186.566 96.88L186.39 97.058L186.566 96.88ZM186.566 109.62L186.741 109.798L186.741 109.798L186.566 109.62ZM179.741 112.42L179.728 112.17L179.491 112.182V112.42H179.741ZM179.741 119V119.25H179.991V119H179.741ZM178.481 119H178.231V119.25H178.481V119ZM178.481 112.42H178.731V112.182L178.493 112.17L178.481 112.42ZM171.656 109.62L171.831 109.442L171.831 109.442L171.656 109.62ZM171.656 96.88L171.831 97.058L171.831 97.058L171.656 96.88ZM178.481 94.08L178.493 94.3297L178.731 94.3178V94.08H178.481ZM178.481 87.5V87.25H178.231V87.5H178.481ZM179.741 87.5H179.991V87.25H179.741V87.5ZM179.741 94.08H179.491V94.3178L179.728 94.3297L179.741 94.08ZM172.531 97.685L172.706 97.8631L172.706 97.8631L172.531 97.685ZM172.531 108.815L172.355 108.993L172.355 108.993L172.531 108.815ZM178.481 111.265L178.466 111.515L178.731 111.53V111.265H178.481ZM178.481 95.235H178.731V94.9703L178.466 94.9854L178.481 95.235ZM179.741 111.265H179.491V111.53L179.755 111.515L179.741 111.265ZM185.691 108.815L185.515 108.637L185.515 108.637L185.691 108.815ZM185.691 97.685L185.515 97.8631L185.515 97.8631L185.691 97.685ZM179.741 95.235L179.755 94.9854L179.491 94.9703V95.235H179.741ZM186.39 97.058C188.091 98.7363 188.941 100.795 188.941 103.25H189.441C189.441 100.665 188.54 98.477 186.741 96.702L186.39 97.058ZM188.941 103.25C188.941 105.705 188.091 107.764 186.39 109.442L186.741 109.798C188.54 108.023 189.441 105.835 189.441 103.25H188.941ZM186.39 109.442C184.69 111.12 182.476 112.033 179.728 112.17L179.753 112.67C182.605 112.527 184.941 111.574 186.741 109.798L186.39 109.442ZM179.491 112.42V119H179.991V112.42H179.491ZM179.741 118.75H178.481V119.25H179.741V118.75ZM178.731 119V112.42H178.231V119H178.731ZM178.493 112.17C175.745 112.033 173.531 111.12 171.831 109.442L171.48 109.798C173.28 111.574 175.616 112.527 178.468 112.67L178.493 112.17ZM171.831 109.442C170.13 107.764 169.281 105.705 169.281 103.25H168.781C168.781 105.835 169.681 108.023 171.48 109.798L171.831 109.442ZM169.281 103.25C169.281 100.795 170.13 98.7363 171.831 97.058L171.48 96.702C169.681 98.477 168.781 100.665 168.781 103.25H169.281ZM171.831 97.058C173.531 95.3805 175.745 94.4671 178.493 94.3297L178.468 93.8303C175.616 93.9729 173.28 94.9262 171.48 96.702L171.831 97.058ZM178.731 94.08V87.5H178.231V94.08H178.731ZM178.481 87.75H179.741V87.25H178.481V87.75ZM179.491 87.5V94.08H179.991V87.5H179.491ZM179.728 94.3297C182.476 94.4671 184.69 95.3805 186.39 97.058L186.741 96.702C184.941 94.9262 182.605 93.9729 179.753 93.8303L179.728 94.3297ZM172.355 97.5069C170.789 99.0493 170.006 100.969 170.006 103.25H170.506C170.506 101.097 171.239 99.3074 172.706 97.8631L172.355 97.5069ZM170.006 103.25C170.006 105.531 170.789 107.451 172.355 108.993L172.706 108.637C171.239 107.193 170.506 105.403 170.506 103.25H170.006ZM172.355 108.993C173.922 110.536 175.966 111.372 178.466 111.515L178.495 111.015C176.096 110.878 174.173 110.081 172.706 108.637L172.355 108.993ZM178.731 111.265V95.235H178.231V111.265H178.731ZM178.466 94.9854C175.966 95.1283 173.922 95.9645 172.355 97.5069L172.706 97.8631C174.173 96.4188 176.096 95.6217 178.495 95.4846L178.466 94.9854ZM179.755 111.515C182.256 111.372 184.3 110.536 185.866 108.993L185.515 108.637C184.048 110.081 182.126 110.878 179.726 111.015L179.755 111.515ZM185.866 108.993C187.433 107.451 188.216 105.531 188.216 103.25H187.716C187.716 105.403 186.982 107.193 185.515 108.637L185.866 108.993ZM188.216 103.25C188.216 100.969 187.433 99.0493 185.866 97.5069L185.515 97.8631C186.982 99.3074 187.716 101.097 187.716 103.25H188.216ZM185.866 97.5069C184.3 95.9645 182.256 95.1283 179.755 94.9854L179.726 95.4846C182.126 95.6217 184.048 96.4188 185.515 97.8631L185.866 97.5069ZM179.491 95.235V111.265H179.991V95.235H179.491ZM209.418 96.775L209.241 96.9518L209.242 96.9529L209.418 96.775ZM209.418 109.76L209.594 109.938L209.595 109.937L209.418 109.76ZM198.183 111.02L198.319 110.81L198.319 110.81L198.183 111.02ZM194.998 107.345L195.224 107.239L194.748 107.345H194.998ZM194.998 119V119.25H195.248V119H194.998ZM193.738 119H193.488V119.25H193.738V119ZM193.738 94.5V94.25H193.488V94.5H193.738ZM194.998 94.5H195.248V94.25H194.998V94.5ZM194.998 99.155H194.748L195.224 99.2613L194.998 99.155ZM197.273 108.92L197.095 109.095L197.098 109.098L197.273 108.92ZM208.508 108.92L208.331 108.743L208.331 108.743L208.508 108.92ZM208.508 97.615L208.33 97.7904L208.333 97.7931L208.508 97.615ZM197.273 97.615L197.45 97.7918L197.45 97.7918L197.273 97.615ZM202.978 94.365C205.432 94.365 207.515 95.2256 209.241 96.9518L209.595 96.5982C207.774 94.7778 205.564 93.865 202.978 93.865V94.365ZM209.242 96.9529C210.967 98.6544 211.828 100.748 211.828 103.25H212.328C212.328 100.619 211.416 98.3956 209.594 96.5971L209.242 96.9529ZM211.828 103.25C211.828 105.752 210.966 107.858 209.241 109.583L209.595 109.937C211.416 108.115 212.328 105.881 212.328 103.25H211.828ZM209.242 109.582C207.516 111.285 205.433 112.135 202.978 112.135V112.635C205.563 112.635 207.773 111.735 209.594 109.938L209.242 109.582ZM202.978 112.135C201.226 112.135 199.676 111.692 198.319 110.81L198.047 111.23C199.49 112.168 201.137 112.635 202.978 112.635V112.135ZM198.319 110.81C196.959 109.926 195.928 108.737 195.224 107.239L194.772 107.451C195.514 109.033 196.607 110.294 198.047 111.23L198.319 110.81ZM194.748 107.345V119H195.248V107.345H194.748ZM194.998 118.75H193.738V119.25H194.998V118.75ZM193.988 119V94.5H193.488V119H193.988ZM193.738 94.75H194.998V94.25H193.738V94.75ZM194.748 94.5V99.155H195.248V94.5H194.748ZM195.224 99.2613C195.928 97.7626 196.959 96.5737 198.319 95.6896L198.047 95.2704C196.607 96.2063 195.514 97.4674 194.772 99.0487L195.224 99.2613ZM198.319 95.6896C199.676 94.808 201.226 94.365 202.978 94.365V93.865C201.137 93.865 199.49 94.332 198.047 95.2704L198.319 95.6896ZM197.098 109.098C198.686 110.662 200.628 111.445 202.908 111.445V110.945C200.755 110.945 198.94 110.211 197.448 108.742L197.098 109.098ZM202.908 111.445C205.189 111.445 207.12 110.662 208.685 109.097L208.331 108.743C206.863 110.211 205.061 110.945 202.908 110.945V111.445ZM208.685 109.097C210.273 107.508 211.068 105.554 211.068 103.25H210.568C210.568 105.426 209.823 107.252 208.331 108.743L208.685 109.097ZM211.068 103.25C211.068 100.946 210.273 99.0024 208.683 97.4369L208.333 97.7931C209.823 99.2609 210.568 101.074 210.568 103.25H211.068ZM208.686 97.4396C207.121 95.8505 205.19 95.055 202.908 95.055V95.555C205.06 95.555 206.862 96.2995 208.33 97.7904L208.686 97.4396ZM202.908 95.055C200.626 95.055 198.684 95.8504 197.096 97.4382L197.45 97.7918C198.942 96.2996 200.756 95.555 202.908 95.555V95.055ZM197.096 97.4382C195.53 99.004 194.748 100.947 194.748 103.25H195.248C195.248 101.073 195.982 99.2593 197.45 97.7918L197.096 97.4382ZM194.748 103.25C194.748 105.553 195.53 107.507 197.095 109.095L197.451 108.745C195.982 107.253 195.248 105.427 195.248 103.25H194.748ZM229.729 94.5V94.25H229.606L229.531 94.3474L229.729 94.5ZM230.849 94.5H231.099V94.25H230.849V94.5ZM230.849 112V112.25H231.099V112H230.849ZM229.624 112H229.374V112.25H229.624V112ZM229.624 96.6H229.874V95.8676L229.426 96.4471L229.624 96.6ZM217.724 112V112.25H217.847L217.922 112.153L217.724 112ZM216.604 112H216.354V112.25H216.604V112ZM216.604 94.5V94.25H216.354V94.5H216.604ZM217.864 94.5H218.114V94.25H217.864V94.5ZM217.864 109.9H217.614V110.634L218.062 110.053L217.864 109.9ZM229.729 94.75H230.849V94.25H229.729V94.75ZM230.599 94.5V112H231.099V94.5H230.599ZM230.849 111.75H229.624V112.25H230.849V111.75ZM229.874 112V96.6H229.374V112H229.874ZM229.426 96.4471L217.526 111.847L217.922 112.153L229.822 96.7529L229.426 96.4471ZM217.724 111.75H216.604V112.25H217.724V111.75ZM216.854 112V94.5H216.354V112H216.854ZM216.604 94.75H217.864V94.25H216.604V94.75ZM217.614 94.5V109.9H218.114V94.5H217.614ZM218.062 110.053L229.927 94.6526L229.531 94.3474L217.666 109.747L218.062 110.053ZM250.808 94.5H251.058V94.25H250.808V94.5ZM250.808 112V112.25H251.058V112H250.808ZM249.548 112H249.298V112.25H249.548V112ZM249.548 95.655H249.798V95.405H249.548V95.655ZM239.888 95.655V95.405H239.638V95.655H239.888ZM234.358 112H234.108V112.23L234.337 112.249L234.358 112ZM234.358 110.845L234.378 110.596L234.108 110.574V110.845H234.358ZM237.578 109.62L237.778 109.77L237.779 109.768L237.578 109.62ZM238.628 94.5V94.25H238.378V94.5H238.628ZM250.558 94.5V112H251.058V94.5H250.558ZM250.808 111.75H249.548V112.25H250.808V111.75ZM249.798 112V95.655H249.298V112H249.798ZM249.548 95.405H239.888V95.905H249.548V95.405ZM239.638 95.655V104.79H240.138V95.655H239.638ZM239.638 104.79C239.638 107.324 239.179 109.136 238.307 110.273C237.449 111.392 236.158 111.897 234.378 111.751L234.337 112.249C236.244 112.406 237.718 111.862 238.704 110.577C239.675 109.311 240.138 107.366 240.138 104.79H239.638ZM234.608 112V110.845H234.108V112H234.608ZM234.338 111.094C235.846 111.216 237.013 110.789 237.778 109.77L237.378 109.47C236.742 110.317 235.763 110.708 234.378 110.596L234.338 111.094ZM237.779 109.768C238.529 108.744 238.878 107.065 238.878 104.79H238.378C238.378 107.041 238.027 108.583 237.376 109.472L237.779 109.768ZM238.878 104.79V94.5H238.378V104.79H238.878ZM238.628 94.75H250.808V94.25H238.628V94.75ZM272.449 94.5V94.25H272.199V94.5H272.449ZM273.674 94.5H273.924V94.25H273.674V94.5ZM273.674 112V112.25H273.924V112H273.674ZM272.449 112H272.199V112.25H272.449V112ZM272.449 107.31H272.699L272.221 107.207L272.449 107.31ZM269.264 111.02L269.398 111.231L269.401 111.229L269.264 111.02ZM258.029 109.76L257.852 109.937L257.853 109.938L258.029 109.76ZM258.029 96.775L258.204 96.9529L258.205 96.9518L258.029 96.775ZM269.264 95.515L269.127 95.7241L269.129 95.7256L269.264 95.515ZM272.449 99.19L272.221 99.2934L272.699 99.19H272.449ZM258.869 108.92L258.69 109.095L258.693 109.098L258.869 108.92ZM270.139 108.92L270.314 109.098L270.315 109.097L270.139 108.92ZM270.139 97.615L269.962 97.7918L269.963 97.7931L270.139 97.615ZM272.449 94.75H273.674V94.25H272.449V94.75ZM273.424 94.5V112H273.924V94.5H273.424ZM273.674 111.75H272.449V112.25H273.674V111.75ZM272.699 112V107.31H272.199V112H272.699ZM272.221 107.207C271.541 108.703 270.511 109.903 269.127 110.811L269.401 111.229C270.863 110.27 271.957 108.997 272.676 107.413L272.221 107.207ZM269.129 110.809C267.748 111.692 266.197 112.135 264.469 112.135V112.635C266.287 112.635 267.933 112.168 269.398 111.231L269.129 110.809ZM264.469 112.135C262.014 112.135 259.93 111.285 258.204 109.582L257.853 109.938C259.674 111.735 261.884 112.635 264.469 112.635V112.135ZM258.205 109.583C256.48 107.858 255.619 105.752 255.619 103.25H255.119C255.119 105.881 256.03 108.115 257.852 109.937L258.205 109.583ZM255.619 103.25C255.619 100.748 256.48 98.6544 258.204 96.9529L257.853 96.5971C256.031 98.3956 255.119 100.619 255.119 103.25H255.619ZM258.205 96.9518C259.932 95.2256 262.015 94.365 264.469 94.365V93.865C261.883 93.865 259.672 94.7778 257.852 96.5982L258.205 96.9518ZM264.469 94.365C266.195 94.365 267.746 94.8186 269.127 95.7241L269.401 95.3059C267.935 94.3447 266.289 93.865 264.469 93.865V94.365ZM269.129 95.7256C270.512 96.6096 271.541 97.7973 272.221 99.2934L272.676 99.0865C271.956 97.5027 270.862 96.2404 269.398 95.3044L269.129 95.7256ZM272.699 99.19V94.5H272.199V99.19H272.699ZM258.693 109.098C260.281 110.662 262.223 111.445 264.504 111.445V110.945C262.351 110.945 260.536 110.211 259.044 108.742L258.693 109.098ZM264.504 111.445C266.784 111.445 268.726 110.662 270.314 109.098L269.963 108.742C268.471 110.211 266.657 110.945 264.504 110.945V111.445ZM270.315 109.097C271.904 107.508 272.699 105.554 272.699 103.25H272.199C272.199 105.426 271.453 107.252 269.962 108.743L270.315 109.097ZM272.699 103.25C272.699 100.946 271.904 99.0024 270.314 97.4369L269.963 97.7931C271.454 99.2609 272.199 101.074 272.199 103.25H272.699ZM270.315 97.4382C268.728 95.8504 266.785 95.055 264.504 95.055V95.555C266.655 95.555 268.47 96.2996 269.962 97.7918L270.315 97.4382ZM264.504 95.055C262.222 95.055 260.28 95.8504 258.692 97.4382L259.045 97.7918C260.538 96.2996 262.352 95.555 264.504 95.555V95.055ZM258.692 97.4382C257.126 99.004 256.344 100.947 256.344 103.25H256.844C256.844 101.073 257.578 99.2593 259.045 97.7918L258.692 97.4382ZM256.344 103.25C256.344 105.553 257.126 107.507 258.691 109.095L259.047 108.745C257.578 107.253 256.844 105.427 256.844 103.25H256.344ZM292.515 94.5V94.25H292.265V94.5H292.515ZM293.74 94.5H293.99V94.25H293.74V94.5ZM293.74 112V112.25H293.99V112H293.74ZM292.515 112H292.265V112.25H292.515V112ZM292.515 103.845H292.765V103.595H292.515V103.845ZM280.755 103.845V103.595H280.505V103.845H280.755ZM280.755 112V112.25H281.005V112H280.755ZM279.495 112H279.245V112.25H279.495V112ZM279.495 94.5V94.25H279.245V94.5H279.495ZM280.755 94.5H281.005V94.25H280.755V94.5ZM280.755 102.655H280.505V102.905H280.755V102.655ZM292.515 102.655V102.905H292.765V102.655H292.515ZM292.515 94.75H293.74V94.25H292.515V94.75ZM293.49 94.5V112H293.99V94.5H293.49ZM293.74 111.75H292.515V112.25H293.74V111.75ZM292.765 112V103.845H292.265V112H292.765ZM292.515 103.595H280.755V104.095H292.515V103.595ZM280.505 103.845V112H281.005V103.845H280.505ZM280.755 111.75H279.495V112.25H280.755V111.75ZM279.745 112V94.5H279.245V112H279.745ZM279.495 94.75H280.755V94.25H279.495V94.75ZM280.505 94.5V102.655H281.005V94.5H280.505ZM280.755 102.905H292.515V102.405H280.755V102.905ZM292.765 102.655V94.5H292.265V102.655H292.765ZM300.923 109.76L300.747 109.937L300.923 109.76ZM300.923 96.74L301.1 96.9168L301.1 96.9168L300.923 96.74ZM312.053 95.305L312.178 95.0884L312.178 95.0884L312.053 95.305ZM315.098 98.49L315.225 98.7057L315.425 98.5882L315.323 98.3798L315.098 98.49ZM314.083 99.085L313.859 99.195L313.977 99.4369L314.21 99.3007L314.083 99.085ZM311.458 96.355L311.332 96.5705L311.335 96.5723L311.458 96.355ZM301.798 97.615L301.975 97.7918L301.976 97.7904L301.798 97.615ZM301.798 108.92L301.62 109.095L301.622 109.097L301.798 108.92ZM311.423 110.18L311.549 110.396L311.55 110.395L311.423 110.18ZM314.118 107.415L314.245 107.199L314.02 107.067L313.897 107.298L314.118 107.415ZM315.133 108.01L315.356 108.123L315.463 107.913L315.26 107.794L315.133 108.01ZM312.053 111.195L312.178 111.412L312.178 111.412L312.053 111.195ZM307.433 112.135C304.906 112.135 302.801 111.284 301.1 109.583L300.747 109.937C302.546 111.736 304.78 112.635 307.433 112.635V112.135ZM301.1 109.583C299.399 107.882 298.548 105.777 298.548 103.25H298.048C298.048 105.903 298.947 108.138 300.747 109.937L301.1 109.583ZM298.548 103.25C298.548 100.723 299.399 98.6175 301.1 96.9168L300.747 96.5632C298.947 98.3625 298.048 100.597 298.048 103.25H298.548ZM301.1 96.9168C302.801 95.216 304.906 94.365 307.433 94.365V93.865C304.78 93.865 302.546 94.764 300.747 96.5632L301.1 96.9168ZM307.433 94.365C309.096 94.365 310.593 94.7517 311.928 95.5216L312.178 95.0884C310.761 94.2716 309.177 93.865 307.433 93.865V94.365ZM311.928 95.5216C313.265 96.292 314.244 97.318 314.874 98.6002L315.323 98.3798C314.646 97.0019 313.595 95.9046 312.178 95.0884L311.928 95.5216ZM314.972 98.2743L313.957 98.8693L314.21 99.3007L315.225 98.7057L314.972 98.2743ZM314.308 98.975C313.724 97.7831 312.812 96.8372 311.582 96.1377L311.335 96.5723C312.485 97.2261 313.323 98.1002 313.859 99.195L314.308 98.975ZM311.585 96.1395C310.354 95.4151 308.967 95.055 307.433 95.055V95.555C308.886 95.555 310.183 95.8949 311.332 96.5705L311.585 96.1395ZM307.433 95.055C305.129 95.055 303.186 95.85 301.62 97.4396L301.976 97.7904C303.444 96.3 305.258 95.555 307.433 95.555V95.055ZM301.622 97.4382C300.056 99.004 299.273 100.947 299.273 103.25H299.773C299.773 101.073 300.508 99.2593 301.975 97.7918L301.622 97.4382ZM299.273 103.25C299.273 105.553 300.056 107.507 301.62 109.095L301.976 108.745C300.508 107.253 299.773 105.427 299.773 103.25H299.273ZM301.622 109.097C303.187 110.663 305.13 111.445 307.433 111.445V110.945C305.256 110.945 303.443 110.211 301.975 108.743L301.622 109.097ZM307.433 111.445C308.966 111.445 310.34 111.097 311.549 110.396L311.298 109.964C310.173 110.616 308.887 110.945 307.433 110.945V111.445ZM311.55 110.395C312.777 109.674 313.709 108.719 314.339 107.532L313.897 107.298C313.314 108.398 312.449 109.286 311.297 109.965L311.55 110.395ZM313.992 107.631L315.007 108.226L315.26 107.794L314.245 107.199L313.992 107.631ZM314.911 107.897C314.257 109.181 313.266 110.208 311.928 110.978L312.178 111.412C313.594 110.596 314.656 109.499 315.356 108.123L314.911 107.897ZM311.928 110.978C310.593 111.748 309.096 112.135 307.433 112.135V112.635C309.177 112.635 310.761 112.228 312.178 111.412L311.928 110.978Z" fill="black" mask="url(#path-2-outside-1_71_105)"/>
<path d="M162.346 183.192C161.514 183.192 160.762 183.048 160.09 182.76C159.434 182.472 158.866 182.08 158.386 181.584C157.922 181.088 157.562 180.512 157.306 179.856C157.066 179.184 156.946 178.472 156.946 177.72C156.946 176.888 157.082 176.144 157.354 175.488C157.642 174.832 158.026 174.28 158.506 173.832C159.002 173.368 159.578 173.016 160.234 172.776C160.89 172.536 161.586 172.416 162.322 172.416C163.09 172.416 163.818 172.544 164.506 172.8C165.194 173.056 165.794 173.44 166.306 173.952L165.586 174.888C165.186 174.456 164.698 174.128 164.122 173.904C163.562 173.664 162.962 173.544 162.322 173.544C161.762 173.544 161.226 173.64 160.714 173.832C160.218 174.008 159.778 174.272 159.394 174.624C159.026 174.976 158.73 175.416 158.506 175.944C158.282 176.456 158.17 177.048 158.17 177.72C158.17 178.376 158.274 178.968 158.482 179.496C158.706 180.024 159.01 180.48 159.394 180.864C159.778 181.248 160.226 181.544 160.738 181.752C161.25 181.96 161.81 182.064 162.418 182.064C163.122 182.064 163.754 181.936 164.314 181.68C164.874 181.424 165.322 181.088 165.658 180.672L166.426 181.44C165.994 181.92 165.434 182.336 164.746 182.688C164.074 183.024 163.274 183.192 162.346 183.192ZM173.524 183.192C172.772 183.192 172.068 183.064 171.412 182.808C170.772 182.552 170.212 182.184 169.732 181.704C169.252 181.224 168.868 180.648 168.58 179.976C168.308 179.304 168.172 178.552 168.172 177.72C168.172 176.888 168.316 176.144 168.604 175.488C168.908 174.832 169.3 174.28 169.78 173.832C170.276 173.368 170.836 173.016 171.46 172.776C172.084 172.536 172.732 172.416 173.404 172.416C174.22 172.416 174.932 172.568 175.54 172.872C176.164 173.16 176.684 173.536 177.1 174C177.516 174.464 177.828 174.992 178.036 175.584C178.244 176.16 178.348 176.744 178.348 177.336V177.984H169.396C169.412 178.608 169.532 179.168 169.756 179.664C169.996 180.16 170.308 180.592 170.692 180.96C171.076 181.312 171.508 181.584 171.988 181.776C172.484 181.968 173.012 182.064 173.572 182.064C174.324 182.064 175.004 181.92 175.612 181.632C176.22 181.328 176.732 180.936 177.148 180.456L177.964 181.2C177.388 181.888 176.716 182.392 175.948 182.712C175.18 183.032 174.372 183.192 173.524 183.192ZM173.38 173.544C172.9 173.544 172.444 173.624 172.012 173.784C171.58 173.944 171.188 174.176 170.836 174.48C170.484 174.768 170.188 175.12 169.948 175.536C169.724 175.952 169.564 176.408 169.468 176.904H177.1C177.052 176.44 176.932 176.008 176.74 175.608C176.548 175.192 176.292 174.832 175.972 174.528C175.652 174.224 175.276 173.984 174.844 173.808C174.412 173.632 173.924 173.544 173.38 173.544ZM188.256 177.936H182.112V183H180.888V172.608H182.112V176.808H188.256V172.608H189.48V183H188.256V177.936ZM195.127 173.736H191.623V172.608H199.879V173.736H196.375V183H195.127V173.736ZM200.843 182.832L204.059 178.968C203.195 178.808 202.523 178.48 202.043 177.984C201.579 177.488 201.347 176.784 201.347 175.872C201.347 174.72 201.723 173.888 202.475 173.376C203.243 172.864 204.355 172.608 205.811 172.608H209.195V183H207.947V179.088H205.571H205.499L202.259 183H200.843V182.832ZM207.947 177.984V173.736H205.907C204.819 173.736 203.987 173.888 203.411 174.192C202.835 174.48 202.555 175.048 202.571 175.896C202.571 176.68 202.827 177.224 203.339 177.528C203.851 177.832 204.627 177.984 205.667 177.984H207.947ZM217.047 183.192C215.367 183.192 214.071 182.608 213.159 181.44C212.247 180.256 211.791 178.352 211.791 175.728C211.791 174 211.959 172.584 212.295 171.48C212.647 170.36 213.111 169.48 213.687 168.84C214.263 168.184 214.919 167.72 215.655 167.448C216.391 167.16 217.151 166.976 217.935 166.896C218.703 166.8 219.295 166.688 219.711 166.56C220.143 166.432 220.519 166.208 220.839 165.888L221.679 166.632C221.519 166.872 221.303 167.072 221.031 167.232C220.759 167.392 220.455 167.528 220.119 167.64C219.799 167.752 219.455 167.84 219.087 167.904C218.735 167.952 218.399 167.992 218.079 168.024C217.375 168.104 216.727 168.24 216.135 168.432C215.559 168.624 215.047 168.968 214.599 169.464C214.167 169.96 213.807 170.648 213.519 171.528C213.247 172.408 213.071 173.56 212.991 174.984C213.439 174.104 214.047 173.464 214.815 173.064C215.583 172.664 216.423 172.464 217.335 172.464C218.103 172.464 218.783 172.6 219.375 172.872C219.983 173.144 220.495 173.52 220.911 174C221.343 174.48 221.663 175.048 221.871 175.704C222.095 176.344 222.207 177.032 222.207 177.768C222.207 178.568 222.079 179.304 221.823 179.976C221.567 180.632 221.207 181.2 220.743 181.68C220.295 182.16 219.751 182.536 219.111 182.808C218.487 183.064 217.799 183.192 217.047 183.192ZM217.071 182.064C218.207 182.064 219.135 181.688 219.855 180.936C220.575 180.168 220.935 179.112 220.935 177.768C220.935 177.176 220.847 176.624 220.671 176.112C220.511 175.6 220.271 175.16 219.951 174.792C219.631 174.424 219.231 174.136 218.751 173.928C218.287 173.704 217.759 173.592 217.167 173.592C216.687 173.592 216.215 173.664 215.751 173.808C215.287 173.952 214.863 174.192 214.479 174.528C214.111 174.848 213.807 175.272 213.567 175.8C213.343 176.328 213.231 176.976 213.231 177.744C213.231 179.072 213.583 180.128 214.287 180.912C214.991 181.68 215.919 182.064 217.071 182.064ZM224.763 188.76V172.608H225.915V174.96C226.187 174.272 226.659 173.68 227.331 173.184C228.003 172.672 228.859 172.416 229.899 172.416C230.587 172.416 231.235 172.544 231.843 172.8C232.451 173.04 232.979 173.392 233.427 173.856C233.891 174.32 234.259 174.888 234.531 175.56C234.803 176.216 234.939 176.96 234.939 177.792C234.939 178.656 234.795 179.424 234.507 180.096C234.235 180.752 233.867 181.312 233.403 181.776C232.939 182.24 232.403 182.592 231.795 182.832C231.203 183.072 230.587 183.192 229.947 183.192C229.003 183.192 228.187 182.96 227.499 182.496C226.811 182.016 226.307 181.416 225.987 180.696V188.76H224.763ZM229.827 173.544C229.203 173.544 228.651 173.656 228.171 173.88C227.707 174.104 227.315 174.4 226.995 174.768C226.675 175.136 226.427 175.56 226.251 176.04C226.091 176.504 226.003 176.984 225.987 177.48V178.032C226.003 178.512 226.091 178.992 226.251 179.472C226.427 179.952 226.675 180.384 226.995 180.768C227.331 181.136 227.739 181.44 228.219 181.68C228.715 181.92 229.275 182.04 229.899 182.04C231.051 182.04 231.963 181.648 232.635 180.864C233.323 180.08 233.667 179.048 233.667 177.768C233.667 176.424 233.307 175.384 232.587 174.648C231.883 173.912 230.963 173.544 229.827 173.544ZM237.489 172.608H238.713V176.328H241.113C242.521 176.328 243.577 176.592 244.281 177.12C244.985 177.648 245.337 178.488 245.337 179.64C245.337 180.792 244.969 181.64 244.233 182.184C243.513 182.728 242.393 183 240.873 183H237.489V172.608ZM240.681 181.872C241.849 181.872 242.713 181.712 243.273 181.392C243.849 181.072 244.137 180.488 244.137 179.64C244.137 178.84 243.873 178.28 243.345 177.96C242.817 177.64 242.001 177.48 240.897 177.48H238.713V181.872H240.681ZM254.308 182.808L259.516 176.232C260.092 175.512 260.572 174.888 260.956 174.36C261.34 173.816 261.652 173.328 261.892 172.896C262.132 172.448 262.3 172.024 262.396 171.624C262.492 171.224 262.54 170.792 262.54 170.328C262.54 169.304 262.236 168.536 261.628 168.024C261.02 167.496 260.22 167.232 259.228 167.232C258.46 167.232 257.748 167.408 257.092 167.76C256.452 168.112 255.828 168.616 255.22 169.272L254.452 168.528C254.644 168.272 254.892 168 255.196 167.712C255.516 167.424 255.884 167.16 256.3 166.92C256.732 166.68 257.204 166.48 257.716 166.32C258.228 166.16 258.788 166.08 259.396 166.08C260.132 166.08 260.772 166.192 261.316 166.416C261.876 166.64 262.34 166.944 262.708 167.328C263.076 167.696 263.348 168.128 263.524 168.624C263.716 169.12 263.812 169.648 263.812 170.208C263.812 170.72 263.756 171.208 263.644 171.672C263.548 172.12 263.38 172.592 263.14 173.088C262.9 173.568 262.588 174.088 262.204 174.648C261.82 175.208 261.348 175.84 260.788 176.544L256.588 181.8H264.148V183H254.308V182.808ZM272.963 183.144C271.235 183.144 269.915 182.408 269.003 180.936C268.091 179.448 267.635 177.344 267.635 174.624C267.635 171.84 268.099 169.72 269.027 168.264C269.971 166.792 271.251 166.056 272.867 166.056C274.579 166.056 275.883 166.8 276.779 168.288C277.691 169.76 278.147 171.856 278.147 174.576C278.147 177.36 277.683 179.488 276.755 180.96C275.827 182.416 274.563 183.144 272.963 183.144ZM272.963 181.968C274.179 181.968 275.123 181.368 275.795 180.168C276.483 178.968 276.827 177.104 276.827 174.576C276.827 172.096 276.483 170.256 275.795 169.056C275.123 167.84 274.147 167.232 272.867 167.232C271.635 167.232 270.675 167.832 269.987 169.032C269.299 170.232 268.955 172.096 268.955 174.624C268.955 177.104 269.299 178.952 269.987 180.168C270.675 181.368 271.667 181.968 272.963 181.968ZM281.051 182.808L286.259 176.232C286.835 175.512 287.315 174.888 287.699 174.36C288.083 173.816 288.395 173.328 288.635 172.896C288.875 172.448 289.043 172.024 289.139 171.624C289.235 171.224 289.283 170.792 289.283 170.328C289.283 169.304 288.979 168.536 288.371 168.024C287.763 167.496 286.963 167.232 285.971 167.232C285.203 167.232 284.491 167.408 283.835 167.76C283.195 168.112 282.571 168.616 281.963 169.272L281.195 168.528C281.387 168.272 281.635 168 281.939 167.712C282.259 167.424 282.627 167.16 283.043 166.92C283.475 166.68 283.947 166.48 284.459 166.32C284.971 166.16 285.531 166.08 286.139 166.08C286.875 166.08 287.515 166.192 288.059 166.416C288.619 166.64 289.083 166.944 289.451 167.328C289.819 167.696 290.091 168.128 290.267 168.624C290.459 169.12 290.555 169.648 290.555 170.208C290.555 170.72 290.499 171.208 290.387 171.672C290.291 172.12 290.123 172.592 289.883 173.088C289.643 173.568 289.331 174.088 288.947 174.648C288.563 175.208 288.091 175.84 287.531 176.544L283.331 181.8H290.891V183H281.051V182.808ZM294.246 182.808L299.454 176.232C300.03 175.512 300.51 174.888 300.894 174.36C301.278 173.816 301.59 173.328 301.83 172.896C302.07 172.448 302.238 172.024 302.334 171.624C302.43 171.224 302.478 170.792 302.478 170.328C302.478 169.304 302.174 168.536 301.566 168.024C300.958 167.496 300.158 167.232 299.166 167.232C298.398 167.232 297.686 167.408 297.03 167.76C296.39 168.112 295.766 168.616 295.158 169.272L294.39 168.528C294.582 168.272 294.83 168 295.134 167.712C295.454 167.424 295.822 167.16 296.238 166.92C296.67 166.68 297.142 166.48 297.654 166.32C298.166 166.16 298.726 166.08 299.334 166.08C300.07 166.08 300.71 166.192 301.254 166.416C301.814 166.64 302.278 166.944 302.646 167.328C303.014 167.696 303.286 168.128 303.462 168.624C303.654 169.12 303.75 169.648 303.75 170.208C303.75 170.72 303.694 171.208 303.582 171.672C303.486 172.12 303.318 172.592 303.078 173.088C302.838 173.568 302.526 174.088 302.142 174.648C301.758 175.208 301.286 175.84 300.726 176.544L296.526 181.8H304.086V183H294.246V182.808ZM320.441 178.032H314.009V176.904H320.441V178.032ZM164.185 206.936H158.041V212H156.817V201.608H158.041V205.808H164.185V201.608H165.409V212H164.185V206.936ZM172.953 212.192C172.313 212.192 171.689 212.072 171.081 211.832C170.489 211.592 169.961 211.24 169.497 210.776C169.033 210.312 168.657 209.752 168.369 209.096C168.097 208.424 167.961 207.656 167.961 206.792C167.961 205.96 168.097 205.216 168.369 204.56C168.641 203.888 169.001 203.32 169.449 202.856C169.913 202.392 170.449 202.04 171.057 201.8C171.665 201.544 172.313 201.416 173.001 201.416C173.993 201.416 174.825 201.656 175.497 202.136C176.169 202.6 176.665 203.16 176.985 203.816V201.608H178.137V212H176.985V209.552C176.665 210.32 176.153 210.952 175.449 211.448C174.761 211.944 173.929 212.192 172.953 212.192ZM173.001 211.04C173.641 211.04 174.201 210.92 174.681 210.68C175.177 210.424 175.585 210.096 175.905 209.696C176.241 209.296 176.489 208.848 176.649 208.352C176.825 207.856 176.913 207.368 176.913 206.888V206.624C176.913 206.112 176.833 205.616 176.673 205.136C176.513 204.64 176.273 204.2 175.953 203.816C175.633 203.432 175.233 203.128 174.753 202.904C174.273 202.664 173.713 202.544 173.073 202.544C171.937 202.544 171.009 202.912 170.289 203.648C169.585 204.384 169.233 205.424 169.233 206.768C169.233 208.048 169.569 209.08 170.241 209.864C170.929 210.648 171.849 211.04 173.001 211.04ZM186.088 212.192C185.256 212.192 184.504 212.048 183.832 211.76C183.176 211.472 182.608 211.08 182.128 210.584C181.664 210.088 181.304 209.512 181.048 208.856C180.808 208.184 180.688 207.472 180.688 206.72C180.688 205.888 180.824 205.144 181.096 204.488C181.384 203.832 181.768 203.28 182.248 202.832C182.744 202.368 183.32 202.016 183.976 201.776C184.632 201.536 185.328 201.416 186.064 201.416C186.832 201.416 187.56 201.544 188.248 201.8C188.936 202.056 189.536 202.44 190.048 202.952L189.328 203.888C188.928 203.456 188.44 203.128 187.864 202.904C187.304 202.664 186.704 202.544 186.064 202.544C185.504 202.544 184.968 202.64 184.456 202.832C183.96 203.008 183.52 203.272 183.136 203.624C182.768 203.976 182.472 204.416 182.248 204.944C182.024 205.456 181.912 206.048 181.912 206.72C181.912 207.376 182.016 207.968 182.224 208.496C182.448 209.024 182.752 209.48 183.136 209.864C183.52 210.248 183.968 210.544 184.48 210.752C184.992 210.96 185.552 211.064 186.16 211.064C186.864 211.064 187.496 210.936 188.056 210.68C188.616 210.424 189.064 210.088 189.4 209.672L190.168 210.44C189.736 210.92 189.176 211.336 188.488 211.688C187.816 212.024 187.016 212.192 186.088 212.192ZM195.104 202.736H191.6V201.608H199.856V202.736H196.352V212H195.104V202.736ZM205.982 212.192C205.246 212.192 204.558 212.056 203.918 211.784C203.294 211.512 202.742 211.136 202.262 210.656C201.798 210.16 201.43 209.584 201.158 208.928C200.902 208.256 200.774 207.528 200.774 206.744C200.774 205.976 200.902 205.264 201.158 204.608C201.43 203.952 201.798 203.392 202.262 202.928C202.742 202.448 203.294 202.08 203.918 201.824C204.558 201.552 205.246 201.416 205.982 201.416C206.718 201.416 207.398 201.552 208.022 201.824C208.646 202.08 209.19 202.448 209.654 202.928C210.118 203.392 210.478 203.952 210.734 204.608C211.006 205.264 211.142 205.976 211.142 206.744C211.142 207.528 211.006 208.256 210.734 208.928C210.478 209.584 210.118 210.16 209.654 210.656C209.19 211.136 208.638 211.512 207.998 211.784C207.374 212.056 206.702 212.192 205.982 212.192ZM205.982 211.064C206.558 211.064 207.086 210.96 207.566 210.752C208.046 210.544 208.462 210.248 208.814 209.864C209.166 209.48 209.438 209.024 209.63 208.496C209.838 207.968 209.942 207.384 209.942 206.744C209.942 206.12 209.838 205.552 209.63 205.04C209.438 204.528 209.166 204.088 208.814 203.72C208.462 203.336 208.046 203.048 207.566 202.856C207.086 202.648 206.558 202.544 205.982 202.544C205.406 202.544 204.87 202.648 204.374 202.856C203.894 203.048 203.478 203.336 203.126 203.72C202.774 204.088 202.494 204.528 202.286 205.04C202.094 205.552 201.998 206.12 201.998 206.744C201.998 207.384 202.094 207.968 202.286 208.496C202.494 209.024 202.774 209.48 203.126 209.864C203.494 210.248 203.918 210.544 204.398 210.752C204.878 210.96 205.406 211.064 205.982 211.064ZM212.773 211.832L215.989 207.968C215.125 207.808 214.453 207.48 213.973 206.984C213.509 206.488 213.277 205.784 213.277 204.872C213.277 203.72 213.653 202.888 214.405 202.376C215.173 201.864 216.285 201.608 217.741 201.608H221.125V212H219.877V208.088H217.501H217.429L214.189 212H212.773V211.832ZM219.877 206.984V202.736H217.837C216.749 202.736 215.917 202.888 215.341 203.192C214.765 203.48 214.485 204.048 214.501 204.896C214.501 205.68 214.757 206.224 215.269 206.528C215.781 206.832 216.557 206.984 217.597 206.984H219.877ZM237.137 212H224.177V201.608H225.401V210.872H229.769V201.608H230.993V210.872H235.361V201.608H236.585V210.872H238.313V214.712H237.137V212ZM244.868 212.192C244.116 212.192 243.412 212.064 242.756 211.808C242.116 211.552 241.556 211.184 241.076 210.704C240.596 210.224 240.212 209.648 239.924 208.976C239.652 208.304 239.516 207.552 239.516 206.72C239.516 205.888 239.66 205.144 239.948 204.488C240.252 203.832 240.644 203.28 241.124 202.832C241.62 202.368 242.18 202.016 242.804 201.776C243.428 201.536 244.076 201.416 244.748 201.416C245.564 201.416 246.276 201.568 246.884 201.872C247.508 202.16 248.028 202.536 248.444 203C248.86 203.464 249.172 203.992 249.38 204.584C249.588 205.16 249.692 205.744 249.692 206.336V206.984H240.74C240.756 207.608 240.876 208.168 241.1 208.664C241.34 209.16 241.652 209.592 242.036 209.96C242.42 210.312 242.852 210.584 243.332 210.776C243.828 210.968 244.356 211.064 244.916 211.064C245.668 211.064 246.348 210.92 246.956 210.632C247.564 210.328 248.076 209.936 248.492 209.456L249.308 210.2C248.732 210.888 248.06 211.392 247.292 211.712C246.524 212.032 245.716 212.192 244.868 212.192ZM244.724 202.544C244.244 202.544 243.788 202.624 243.356 202.784C242.924 202.944 242.532 203.176 242.18 203.48C241.828 203.768 241.532 204.12 241.292 204.536C241.068 204.952 240.908 205.408 240.812 205.904H248.444C248.396 205.44 248.276 205.008 248.084 204.608C247.892 204.192 247.636 203.832 247.316 203.528C246.996 203.224 246.62 202.984 246.188 202.808C245.756 202.632 245.268 202.544 244.724 202.544ZM257.055 212.192C256.303 212.192 255.599 212.064 254.943 211.808C254.303 211.552 253.743 211.184 253.263 210.704C252.783 210.224 252.399 209.648 252.111 208.976C251.839 208.304 251.703 207.552 251.703 206.72C251.703 205.888 251.847 205.144 252.135 204.488C252.439 203.832 252.831 203.28 253.311 202.832C253.807 202.368 254.367 202.016 254.991 201.776C255.615 201.536 256.263 201.416 256.935 201.416C257.751 201.416 258.463 201.568 259.071 201.872C259.695 202.16 260.215 202.536 260.631 203C261.047 203.464 261.359 203.992 261.567 204.584C261.775 205.16 261.879 205.744 261.879 206.336V206.984H252.927C252.943 207.608 253.063 208.168 253.287 208.664C253.527 209.16 253.839 209.592 254.223 209.96C254.607 210.312 255.039 210.584 255.519 210.776C256.015 210.968 256.543 211.064 257.103 211.064C257.855 211.064 258.535 210.92 259.143 210.632C259.751 210.328 260.263 209.936 260.679 209.456L261.495 210.2C260.919 210.888 260.247 211.392 259.479 211.712C258.711 212.032 257.903 212.192 257.055 212.192ZM256.911 202.544C256.431 202.544 255.975 202.624 255.543 202.784C255.111 202.944 254.719 203.176 254.367 203.48C254.015 203.768 253.719 204.12 253.479 204.536C253.255 204.952 253.095 205.408 252.999 205.904H260.631C260.583 205.44 260.463 205.008 260.271 204.608C260.079 204.192 259.823 203.832 259.503 203.528C259.183 203.224 258.807 202.984 258.375 202.808C257.943 202.632 257.455 202.544 256.911 202.544ZM270.653 201.608H274.517C275.621 201.608 276.429 201.832 276.941 202.28C277.469 202.728 277.733 203.328 277.733 204.08C277.733 204.592 277.605 205.04 277.349 205.424C277.093 205.792 276.725 206.064 276.245 206.24C276.965 206.384 277.533 206.672 277.949 207.104C278.365 207.536 278.573 208.144 278.573 208.928C278.573 209.92 278.221 210.68 277.517 211.208C276.829 211.736 275.829 212 274.517 212H270.653V201.608ZM271.877 206.888V210.872H274.277C275.365 210.872 276.141 210.704 276.605 210.368C277.085 210.016 277.325 209.504 277.325 208.832C277.325 208.144 277.077 207.648 276.581 207.344C276.101 207.04 275.349 206.888 274.325 206.888H271.877ZM271.877 202.712V205.808H274.277C274.965 205.808 275.509 205.696 275.909 205.472C276.325 205.232 276.533 204.832 276.533 204.272C276.533 203.232 275.757 202.712 274.205 202.712H271.877ZM280.919 217.76V201.608H282.071V203.96C282.343 203.272 282.815 202.68 283.487 202.184C284.159 201.672 285.015 201.416 286.055 201.416C286.743 201.416 287.391 201.544 287.999 201.8C288.607 202.04 289.135 202.392 289.583 202.856C290.047 203.32 290.415 203.888 290.687 204.56C290.959 205.216 291.095 205.96 291.095 206.792C291.095 207.656 290.951 208.424 290.663 209.096C290.391 209.752 290.023 210.312 289.559 210.776C289.095 211.24 288.559 211.592 287.951 211.832C287.359 212.072 286.743 212.192 286.103 212.192C285.159 212.192 284.343 211.96 283.655 211.496C282.967 211.016 282.463 210.416 282.143 209.696V217.76H280.919ZM285.983 202.544C285.359 202.544 284.807 202.656 284.327 202.88C283.863 203.104 283.471 203.4 283.151 203.768C282.831 204.136 282.583 204.56 282.407 205.04C282.247 205.504 282.159 205.984 282.143 206.48V207.032C282.159 207.512 282.247 207.992 282.407 208.472C282.583 208.952 282.831 209.384 283.151 209.768C283.487 210.136 283.895 210.44 284.375 210.68C284.871 210.92 285.431 211.04 286.055 211.04C287.207 211.04 288.119 210.648 288.791 209.864C289.479 209.08 289.823 208.048 289.823 206.768C289.823 205.424 289.463 204.384 288.743 203.648C288.039 202.912 287.119 202.544 285.983 202.544ZM298.469 212.192C297.717 212.192 297.013 212.064 296.357 211.808C295.717 211.552 295.157 211.184 294.677 210.704C294.197 210.224 293.813 209.648 293.525 208.976C293.253 208.304 293.117 207.552 293.117 206.72C293.117 205.888 293.261 205.144 293.549 204.488C293.853 203.832 294.245 203.28 294.725 202.832C295.221 202.368 295.781 202.016 296.405 201.776C297.029 201.536 297.677 201.416 298.349 201.416C299.165 201.416 299.877 201.568 300.485 201.872C301.109 202.16 301.629 202.536 302.045 203C302.461 203.464 302.773 203.992 302.981 204.584C303.189 205.16 303.293 205.744 303.293 206.336V206.984H294.341C294.357 207.608 294.477 208.168 294.701 208.664C294.941 209.16 295.253 209.592 295.637 209.96C296.021 210.312 296.453 210.584 296.933 210.776C297.429 210.968 297.957 211.064 298.517 211.064C299.269 211.064 299.949 210.92 300.557 210.632C301.165 210.328 301.677 209.936 302.093 209.456L302.909 210.2C302.333 210.888 301.661 211.392 300.893 211.712C300.125 212.032 299.317 212.192 298.469 212.192ZM298.325 202.544C297.845 202.544 297.389 202.624 296.957 202.784C296.525 202.944 296.133 203.176 295.781 203.48C295.429 203.768 295.133 204.12 294.893 204.536C294.669 204.952 294.509 205.408 294.413 205.904H302.045C301.997 205.44 301.877 205.008 301.685 204.608C301.493 204.192 301.237 203.832 300.917 203.528C300.597 203.224 300.221 202.984 299.789 202.808C299.357 202.632 298.869 202.544 298.325 202.544ZM306.848 201.608H307.376L311.168 209.744L314.84 201.608H315.344L317.192 212H316.016L314.72 204.368L311.216 212.072H311.024L307.472 204.536L306.176 212H305L306.848 201.608ZM318.851 211.832L322.067 207.968C321.203 207.808 320.531 207.48 320.051 206.984C319.587 206.488 319.355 205.784 319.355 204.872C319.355 203.72 319.731 202.888 320.483 202.376C321.251 201.864 322.363 201.608 323.819 201.608H327.203V212H325.955V208.088H323.579H323.507L320.267 212H318.851V211.832ZM325.955 206.984V202.736H323.915C322.827 202.736 321.995 202.888 321.419 203.192C320.843 203.48 320.563 204.048 320.579 204.896C320.579 205.68 320.835 206.224 321.347 206.528C321.859 206.832 322.635 206.984 323.675 206.984H325.955ZM129.548 259.608H136.1V260.736H130.772V270H129.548V259.608ZM138.477 275.76V259.608H139.629V261.96C139.901 261.272 140.373 260.68 141.045 260.184C141.717 259.672 142.573 259.416 143.613 259.416C144.301 259.416 144.949 259.544 145.557 259.8C146.165 260.04 146.693 260.392 147.141 260.856C147.605 261.32 147.973 261.888 148.245 262.56C148.517 263.216 148.653 263.96 148.653 264.792C148.653 265.656 148.509 266.424 148.221 267.096C147.949 267.752 147.581 268.312 147.117 268.776C146.653 269.24 146.117 269.592 145.509 269.832C144.917 270.072 144.301 270.192 143.661 270.192C142.717 270.192 141.901 269.96 141.213 269.496C140.525 269.016 140.021 268.416 139.701 267.696V275.76H138.477ZM143.541 260.544C142.917 260.544 142.365 260.656 141.885 260.88C141.421 261.104 141.029 261.4 140.709 261.768C140.389 262.136 140.141 262.56 139.965 263.04C139.805 263.504 139.717 263.984 139.701 264.48V265.032C139.717 265.512 139.805 265.992 139.965 266.472C140.141 266.952 140.389 267.384 140.709 267.768C141.045 268.136 141.453 268.44 141.933 268.68C142.429 268.92 142.989 269.04 143.613 269.04C144.765 269.04 145.677 268.648 146.349 267.864C147.037 267.08 147.381 266.048 147.381 264.768C147.381 263.424 147.021 262.384 146.301 261.648C145.597 260.912 144.677 260.544 143.541 260.544ZM155.668 270.192C155.028 270.192 154.404 270.072 153.796 269.832C153.204 269.592 152.676 269.24 152.212 268.776C151.748 268.312 151.372 267.752 151.084 267.096C150.812 266.424 150.676 265.656 150.676 264.792C150.676 263.96 150.812 263.216 151.084 262.56C151.356 261.888 151.716 261.32 152.164 260.856C152.628 260.392 153.164 260.04 153.772 259.8C154.38 259.544 155.028 259.416 155.716 259.416C156.708 259.416 157.54 259.656 158.212 260.136C158.884 260.6 159.38 261.16 159.7 261.816V259.608H160.852V270H159.7V267.552C159.38 268.32 158.868 268.952 158.164 269.448C157.476 269.944 156.644 270.192 155.668 270.192ZM155.716 269.04C156.356 269.04 156.916 268.92 157.396 268.68C157.892 268.424 158.3 268.096 158.62 267.696C158.956 267.296 159.204 266.848 159.364 266.352C159.54 265.856 159.628 265.368 159.628 264.888V264.624C159.628 264.112 159.548 263.616 159.388 263.136C159.228 262.64 158.988 262.2 158.668 261.816C158.348 261.432 157.948 261.128 157.468 260.904C156.988 260.664 156.428 260.544 155.788 260.544C154.652 260.544 153.724 260.912 153.004 261.648C152.3 262.384 151.948 263.424 151.948 264.768C151.948 266.048 152.284 267.08 152.956 267.864C153.644 268.648 154.564 269.04 155.716 269.04ZM168.563 270.168C167.843 270.168 167.171 270.04 166.547 269.784C165.923 269.512 165.379 269.144 164.915 268.68C164.451 268.2 164.083 267.632 163.811 266.976C163.539 266.32 163.403 265.6 163.403 264.816C163.403 264.016 163.539 263.288 163.811 262.632C164.099 261.96 164.475 261.392 164.939 260.928C165.403 260.448 165.947 260.08 166.571 259.824C167.195 259.552 167.859 259.416 168.563 259.416H168.779V253.2H170.003V259.416H170.243C170.963 259.416 171.635 259.552 172.259 259.824C172.883 260.08 173.427 260.448 173.891 260.928C174.355 261.392 174.723 261.952 174.995 262.608C175.267 263.264 175.403 263.984 175.403 264.768C175.403 265.568 175.259 266.304 174.971 266.976C174.699 267.632 174.323 268.2 173.843 268.68C173.379 269.144 172.835 269.512 172.211 269.784C171.587 270.04 170.931 270.168 170.243 270.168H170.003V275.76H168.779V270.168H168.563ZM170.003 260.544V269.04H170.243C170.803 269.04 171.323 268.936 171.803 268.728C172.283 268.52 172.699 268.224 173.051 267.84C173.403 267.456 173.675 267.008 173.867 266.496C174.075 265.968 174.179 265.392 174.179 264.768C174.179 264.144 174.075 263.576 173.867 263.064C173.675 262.536 173.403 262.088 173.051 261.72C172.699 261.352 172.283 261.064 171.803 260.856C171.323 260.648 170.803 260.544 170.243 260.544H170.003ZM164.627 264.84C164.627 265.464 164.723 266.032 164.915 266.544C165.123 267.056 165.403 267.496 165.755 267.864C166.107 268.232 166.523 268.52 167.003 268.728C167.483 268.936 168.003 269.04 168.563 269.04H168.779V260.544H168.563C168.003 260.544 167.483 260.648 167.003 260.856C166.523 261.064 166.107 261.36 165.755 261.744C165.403 262.128 165.123 262.584 164.915 263.112C164.723 263.64 164.627 264.216 164.627 264.84ZM177.946 259.608H179.17V267.528L186.058 259.608H186.514V270H185.29V262.056L178.402 270H177.946V259.608ZM195.667 265.68C195.347 265.808 194.955 265.92 194.491 266.016C194.027 266.112 193.483 266.16 192.859 266.16C192.251 266.16 191.699 266.096 191.203 265.968C190.723 265.84 190.315 265.64 189.979 265.368C189.643 265.08 189.379 264.72 189.187 264.288C189.011 263.84 188.923 263.296 188.923 262.656V259.608H190.147V262.56C190.147 263.36 190.355 263.968 190.771 264.384C191.203 264.8 191.987 265.008 193.123 265.008C193.635 265.008 194.091 264.976 194.491 264.912C194.907 264.832 195.299 264.728 195.667 264.6V259.608H196.891V270H195.667V265.68ZM204.637 270.192C203.885 270.192 203.181 270.064 202.525 269.808C201.885 269.552 201.325 269.184 200.845 268.704C200.365 268.224 199.981 267.648 199.693 266.976C199.421 266.304 199.285 265.552 199.285 264.72C199.285 263.888 199.429 263.144 199.717 262.488C200.021 261.832 200.413 261.28 200.893 260.832C201.389 260.368 201.949 260.016 202.573 259.776C203.197 259.536 203.845 259.416 204.517 259.416C205.333 259.416 206.045 259.568 206.653 259.872C207.277 260.16 207.797 260.536 208.213 261C208.629 261.464 208.941 261.992 209.149 262.584C209.357 263.16 209.461 263.744 209.461 264.336V264.984H200.509C200.525 265.608 200.645 266.168 200.869 266.664C201.109 267.16 201.421 267.592 201.805 267.96C202.189 268.312 202.621 268.584 203.101 268.776C203.597 268.968 204.125 269.064 204.685 269.064C205.437 269.064 206.117 268.92 206.725 268.632C207.333 268.328 207.845 267.936 208.261 267.456L209.077 268.2C208.501 268.888 207.829 269.392 207.061 269.712C206.293 270.032 205.485 270.192 204.637 270.192ZM204.493 260.544C204.013 260.544 203.557 260.624 203.125 260.784C202.693 260.944 202.301 261.176 201.949 261.48C201.597 261.768 201.301 262.12 201.061 262.536C200.837 262.952 200.677 263.408 200.581 263.904H208.213C208.165 263.44 208.045 263.008 207.853 262.608C207.661 262.192 207.405 261.832 207.085 261.528C206.765 261.224 206.389 260.984 205.957 260.808C205.525 260.632 205.037 260.544 204.493 260.544ZM216.873 270.192C216.041 270.192 215.289 270.048 214.617 269.76C213.961 269.472 213.393 269.08 212.913 268.584C212.449 268.088 212.089 267.512 211.833 266.856C211.593 266.184 211.473 265.472 211.473 264.72C211.473 263.888 211.609 263.144 211.881 262.488C212.169 261.832 212.553 261.28 213.033 260.832C213.529 260.368 214.105 260.016 214.761 259.776C215.417 259.536 216.113 259.416 216.849 259.416C217.617 259.416 218.345 259.544 219.033 259.8C219.721 260.056 220.321 260.44 220.833 260.952L220.113 261.888C219.713 261.456 219.225 261.128 218.649 260.904C218.089 260.664 217.489 260.544 216.849 260.544C216.289 260.544 215.753 260.64 215.241 260.832C214.745 261.008 214.305 261.272 213.921 261.624C213.553 261.976 213.257 262.416 213.033 262.944C212.809 263.456 212.697 264.048 212.697 264.72C212.697 265.376 212.801 265.968 213.009 266.496C213.233 267.024 213.537 267.48 213.921 267.864C214.305 268.248 214.753 268.544 215.265 268.752C215.777 268.96 216.337 269.064 216.945 269.064C217.649 269.064 218.281 268.936 218.841 268.68C219.401 268.424 219.849 268.088 220.185 267.672L220.953 268.44C220.521 268.92 219.961 269.336 219.273 269.688C218.601 270.024 217.801 270.192 216.873 270.192ZM223.321 259.608H224.545V263.976H225.577L229.609 259.608H230.977V259.776L226.633 264.384L231.985 269.832V270H230.521L225.553 265.056H224.545V270H223.321V259.608ZM233.634 259.608H234.858V267.528L241.746 259.608H242.202V270H240.978V262.056L234.09 270H233.634V259.608ZM245.282 259.608H246.506V267.528L253.394 259.608H253.85V270H252.626V262.056L245.738 270H245.282V259.608ZM249.578 257.832C248.57 257.832 247.762 257.592 247.154 257.112C246.562 256.616 246.282 255.928 246.314 255.048H247.418C247.402 255.608 247.586 256.056 247.97 256.392C248.354 256.728 248.906 256.896 249.626 256.896C250.298 256.896 250.834 256.744 251.234 256.44C251.65 256.12 251.85 255.656 251.834 255.048H252.938C252.938 255.928 252.634 256.616 252.026 257.112C251.418 257.592 250.602 257.832 249.578 257.832ZM261.821 268.872H263.069C263.549 268.088 263.885 267.112 264.077 265.944C264.285 264.76 264.389 263.504 264.389 262.176V259.608H271.229V268.872H272.957V272.712H271.781V270H262.997V272.712H261.821V268.872ZM265.565 262.56C265.565 263.664 265.485 264.76 265.325 265.848C265.165 266.936 264.861 267.944 264.413 268.872H270.005V260.736H265.565V262.56ZM274.86 259.608H276.084V267.528L282.972 259.608H283.428V270H282.204V262.056L275.316 270H274.86V259.608ZM289.677 270.192C289.149 270.192 288.677 270.144 288.261 270.048C287.845 269.952 287.477 269.832 287.157 269.688C286.837 269.528 286.557 269.36 286.317 269.184C286.093 269.008 285.893 268.832 285.717 268.656L286.485 267.744C286.853 268.128 287.293 268.448 287.805 268.704C288.333 268.944 288.965 269.064 289.701 269.064C290.709 269.064 291.477 268.848 292.005 268.416C292.549 267.984 292.821 267.464 292.821 266.856C292.821 266.28 292.565 265.816 292.053 265.464C291.557 265.112 290.861 264.936 289.965 264.936H288.645V263.784H289.821C290.541 263.784 291.125 263.656 291.573 263.4C292.021 263.128 292.245 262.736 292.245 262.224C292.245 261.728 292.021 261.328 291.573 261.024C291.141 260.704 290.509 260.544 289.677 260.544C289.213 260.544 288.733 260.616 288.237 260.76C287.741 260.888 287.277 261.112 286.845 261.432L286.317 260.472C286.749 260.168 287.229 259.92 287.757 259.728C288.285 259.52 288.925 259.416 289.677 259.416C290.877 259.416 291.797 259.672 292.437 260.184C293.093 260.696 293.421 261.328 293.421 262.08C293.421 262.608 293.269 263.064 292.965 263.448C292.661 263.832 292.277 264.112 291.813 264.288C292.485 264.48 293.021 264.816 293.421 265.296C293.837 265.776 294.045 266.336 294.045 266.976C294.045 267.408 293.949 267.816 293.757 268.2C293.565 268.584 293.277 268.928 292.893 269.232C292.525 269.52 292.069 269.752 291.525 269.928C290.981 270.104 290.365 270.192 289.677 270.192ZM301.027 270.192C300.387 270.192 299.763 270.072 299.155 269.832C298.563 269.592 298.035 269.24 297.571 268.776C297.107 268.312 296.731 267.752 296.443 267.096C296.171 266.424 296.035 265.656 296.035 264.792C296.035 263.96 296.171 263.216 296.443 262.56C296.715 261.888 297.075 261.32 297.523 260.856C297.987 260.392 298.523 260.04 299.131 259.8C299.739 259.544 300.387 259.416 301.075 259.416C302.067 259.416 302.899 259.656 303.571 260.136C304.243 260.6 304.739 261.16 305.059 261.816V259.608H306.211V270H305.059V267.552C304.739 268.32 304.227 268.952 303.523 269.448C302.835 269.944 302.003 270.192 301.027 270.192ZM301.075 269.04C301.715 269.04 302.275 268.92 302.755 268.68C303.251 268.424 303.659 268.096 303.979 267.696C304.315 267.296 304.563 266.848 304.723 266.352C304.899 265.856 304.987 265.368 304.987 264.888V264.624C304.987 264.112 304.907 263.616 304.747 263.136C304.587 262.64 304.347 262.2 304.027 261.816C303.707 261.432 303.307 261.128 302.827 260.904C302.347 260.664 301.787 260.544 301.147 260.544C300.011 260.544 299.083 260.912 298.363 261.648C297.659 262.384 297.307 263.424 297.307 264.768C297.307 266.048 297.643 267.08 298.315 267.864C299.003 268.648 299.923 269.04 301.075 269.04ZM309.29 259.608H310.514V267.528L317.402 259.608H317.858V270H316.634V262.056L309.746 270H309.29V259.608ZM313.586 257.832C312.578 257.832 311.77 257.592 311.162 257.112C310.57 256.616 310.29 255.928 310.322 255.048H311.426C311.41 255.608 311.594 256.056 311.978 256.392C312.362 256.728 312.914 256.896 313.634 256.896C314.306 256.896 314.842 256.744 315.242 256.44C315.658 256.12 315.858 255.656 315.842 255.048H316.946C316.946 255.928 316.642 256.616 316.034 257.112C315.426 257.592 314.61 257.832 313.586 257.832ZM328.306 264.936H322.162V270H320.938V259.608H322.162V263.808H328.306V259.608H329.53V270H328.306V264.936ZM337.434 270.192C336.682 270.192 335.978 270.064 335.322 269.808C334.682 269.552 334.122 269.184 333.642 268.704C333.162 268.224 332.778 267.648 332.49 266.976C332.218 266.304 332.082 265.552 332.082 264.72C332.082 263.888 332.226 263.144 332.514 262.488C332.818 261.832 333.21 261.28 333.69 260.832C334.186 260.368 334.746 260.016 335.37 259.776C335.994 259.536 336.642 259.416 337.314 259.416C338.13 259.416 338.842 259.568 339.45 259.872C340.074 260.16 340.594 260.536 341.01 261C341.426 261.464 341.738 261.992 341.946 262.584C342.154 263.16 342.258 263.744 342.258 264.336V264.984H333.306C333.322 265.608 333.442 266.168 333.666 266.664C333.906 267.16 334.218 267.592 334.602 267.96C334.986 268.312 335.418 268.584 335.898 268.776C336.394 268.968 336.922 269.064 337.482 269.064C338.234 269.064 338.914 268.92 339.522 268.632C340.13 268.328 340.642 267.936 341.058 267.456L341.874 268.2C341.298 268.888 340.626 269.392 339.858 269.712C339.09 270.032 338.282 270.192 337.434 270.192ZM337.29 260.544C336.81 260.544 336.354 260.624 335.922 260.784C335.49 260.944 335.098 261.176 334.746 261.48C334.394 261.768 334.098 262.12 333.858 262.536C333.634 262.952 333.474 263.408 333.378 263.904H341.01C340.962 263.44 340.842 263.008 340.65 262.608C340.458 262.192 340.202 261.832 339.882 261.528C339.562 261.224 339.186 260.984 338.754 260.808C338.322 260.632 337.834 260.544 337.29 260.544ZM344.798 275.76V259.608H345.95V261.96C346.222 261.272 346.694 260.68 347.366 260.184C348.038 259.672 348.894 259.416 349.934 259.416C350.622 259.416 351.27 259.544 351.878 259.8C352.486 260.04 353.014 260.392 353.462 260.856C353.926 261.32 354.294 261.888 354.566 262.56C354.838 263.216 354.974 263.96 354.974 264.792C354.974 265.656 354.83 266.424 354.542 267.096C354.27 267.752 353.902 268.312 353.438 268.776C352.974 269.24 352.438 269.592 351.83 269.832C351.238 270.072 350.622 270.192 349.982 270.192C349.038 270.192 348.222 269.96 347.534 269.496C346.846 269.016 346.342 268.416 346.022 267.696V275.76H344.798ZM349.862 260.544C349.238 260.544 348.686 260.656 348.206 260.88C347.742 261.104 347.35 261.4 347.03 261.768C346.71 262.136 346.462 262.56 346.286 263.04C346.126 263.504 346.038 263.984 346.022 264.48V265.032C346.038 265.512 346.126 265.992 346.286 266.472C346.462 266.952 346.71 267.384 347.03 267.768C347.366 268.136 347.774 268.44 348.254 268.68C348.75 268.92 349.31 269.04 349.934 269.04C351.086 269.04 351.998 268.648 352.67 267.864C353.358 267.08 353.702 266.048 353.702 264.768C353.702 263.424 353.342 262.384 352.622 261.648C351.918 260.912 350.998 260.544 349.862 260.544Z" fill="black"/>
</svg>
