<svg width="40" height="32" viewBox="0 0 40 32" fill="none" xmlns="http://www.w3.org/2000/svg">
<path d="M0.52 4.00042V4C0.52 2.07287 2.0794 0.5 4 0.5H36C37.9239 0.5 39.5 2.07614 39.5 4V28C39.5 29.9239 37.9239 31.5 36 31.5H4C2.07621 31.5 0.500106 29.924 0.5 28.0002C0.5 28.0001 0.5 28.0001 0.5 28L0.52 4.00042ZM21.325 17.764L21.3251 17.764L35.4557 8.92983C35.7107 8.78478 35.9341 8.59016 36.1128 8.35741C36.2941 8.12134 36.4255 7.85095 36.4993 7.56261C36.573 7.27426 36.5875 6.97395 36.5418 6.67985C36.4961 6.38576 36.3912 6.10399 36.2334 5.8516C36.0757 5.59922 35.8684 5.38146 35.6241 5.21152C35.3797 5.04157 35.1034 4.92297 34.8119 4.86289C34.5204 4.80281 34.2198 4.8025 33.9282 4.86198C33.6406 4.92063 33.3677 5.03622 33.1256 5.20188L20 13.4103L6.87439 5.20188C6.63225 5.03621 6.35939 4.92063 6.07184 4.86198C5.78022 4.8025 5.47956 4.80281 5.18806 4.86289C4.89656 4.92297 4.62028 5.04157 4.37595 5.21152C4.13162 5.38146 3.9243 5.59922 3.76656 5.8516C3.60882 6.10399 3.50393 6.38576 3.45824 6.67985C3.41255 6.97395 3.42701 7.27426 3.50074 7.56261C3.57447 7.85096 3.70594 8.12134 3.88719 8.35741C4.0659 8.59015 4.28933 8.78476 4.54431 8.92982L18.6749 17.764L18.675 17.764C19.4771 18.2653 20.5229 18.2653 21.325 17.764Z" stroke="black"/>
</svg>
