<svg width="40" height="40" viewBox="0 0 40 40" fill="none" xmlns="http://www.w3.org/2000/svg">
<path d="M29.7779 13.6473L29.7778 13.6473C29.4753 16.8326 28.1712 24.5335 27.5115 28.0716L27.5115 28.0717C27.2212 29.627 26.5825 30.4369 25.7173 30.5367L25.7101 30.5375L25.7029 30.5382C24.9782 30.6006 24.3621 30.3576 23.8128 30.0367C23.5397 29.8772 23.2729 29.6923 23.0138 29.5084C22.9609 29.4709 22.9083 29.4334 22.8559 29.396C22.647 29.2471 22.441 29.1003 22.2244 28.9572C21.3411 28.375 20.6484 27.9032 19.966 27.4382L19.9554 27.431C19.2765 26.9684 18.6069 26.5123 17.7649 25.9575C17.2442 25.6155 16.8693 25.2698 16.6702 24.8898C16.452 24.4734 16.4699 24.0645 16.6325 23.6957C16.78 23.3613 17.0433 23.0665 17.2972 22.811C17.4175 22.69 17.5469 22.567 17.6743 22.4461L17.7082 22.4139C17.8485 22.2806 17.9875 22.1478 18.1234 22.0095L18.1264 22.0064C18.1917 21.9412 18.4714 21.6819 18.871 21.3115C19.4249 20.7981 20.209 20.0711 20.9718 19.3513C21.6359 18.7247 22.2901 18.0977 22.7833 17.6027C22.7948 17.5911 22.8063 17.5796 22.8177 17.5682C22.4781 17.7877 22.0445 18.0721 21.516 18.4219C20.1129 19.3507 18.0495 20.7346 15.3197 22.5744C14.4834 23.139 13.6577 23.4843 12.8652 23.4598C12.447 23.448 11.8824 23.336 11.3207 23.1949C10.7494 23.0515 10.1434 22.8681 9.62532 22.6955C9.5085 22.6584 9.39068 22.622 9.27347 22.5857C8.79541 22.4379 8.32737 22.2931 7.97733 22.1214C7.75297 22.0114 7.52315 21.8663 7.35622 21.6578C7.17468 21.431 7.08789 21.1539 7.12316 20.8439C7.16698 20.4529 7.44345 20.1632 7.72576 19.9551C8.02126 19.7372 8.42357 19.5345 8.90648 19.3389C14.74 16.8017 18.6233 15.1203 20.5685 14.3181M29.7779 13.6473L20.76 14.78M29.7779 13.6473L29.7787 13.6356C29.7909 13.4647 29.7845 13.2783 29.7797 13.1422L29.7789 13.1208C29.7766 13.0575 29.7748 13.0069 29.7743 12.9643C29.774 12.9307 29.7747 12.9156 29.7748 12.9128L29.7852 12.8503L29.7761 12.778C29.7489 12.5605 29.6594 12.1895 29.3162 11.9127M29.7779 13.6473L29 12.3M20.5685 14.3181C20.5688 14.318 20.5691 14.3179 20.5694 14.3178L20.76 14.78M20.5685 14.3181C20.5681 14.3183 20.5678 14.3184 20.5675 14.3186L20.76 14.78M20.5685 14.3181C23.3457 13.1593 25.0315 12.4747 26.1195 12.08C27.1988 11.6884 27.7454 11.56 28.22 11.56C28.3341 11.56 28.509 11.5735 28.6973 11.619C28.8801 11.6631 29.1154 11.7468 29.3162 11.9127M20.76 14.78C26.32 12.46 27.46 12.06 28.22 12.06C28.38 12.06 28.76 12.1 29 12.3M29.3162 11.9127C29.315 11.9117 29.3137 11.9106 29.3123 11.9096L29 12.3M29.3162 11.9127C29.3175 11.9138 29.3188 11.9148 29.3201 11.9159L29 12.3M23.6673 17.0419C23.6671 17.0421 23.6645 17.0434 23.6599 17.0454C23.6652 17.0427 23.6675 17.0417 23.6673 17.0419ZM0.5 20C0.5 9.23614 9.23614 0.5 20 0.5C30.7639 0.5 39.5 9.23614 39.5 20C39.5 30.7639 30.7639 39.5 20 39.5C9.23614 39.5 0.5 30.7639 0.5 20Z" stroke="black"/>
</svg>
